<?xml version="1.0" standalone="no"?>
<!DOCTYPE svg PUBLIC "-//W3C//DTD SVG 20010904//EN"
 "http://www.w3.org/TR/2001/REC-SVG-20010904/DTD/svg10.dtd">
<svg version="1.0" xmlns="http://www.w3.org/2000/svg"
 width="2000.000000pt" height="1150.000000pt" viewBox="0 0 2000.000000 1150.000000"
 preserveAspectRatio="xMidYMid meet">

<g transform="translate(0.000000,1150.000000) scale(0.100000,-0.100000)"
fill="#000000" stroke="none">
<path d="M11663 8825 c-16 -17 -17 -45 -2 -45 18 0 70 41 64 51 -9 14 -48 10
-62 -6z"/>
<path d="M11470 8755 c0 -9 6 -12 15 -9 8 4 15 10 15 15 0 5 -7 9 -15 9 -8 0
-15 -7 -15 -15z"/>
<path d="M11580 8016 c0 -12 10 -16 40 -16 22 0 40 -4 40 -10 0 -5 9 -10 21
-10 17 0 18 2 7 14 -8 7 -27 15 -43 18 -17 3 -38 9 -47 13 -13 5 -18 3 -18 -9z"/>
<path d="M14246 7195 c4 -8 15 -15 25 -15 10 0 19 7 19 15 0 9 -9 15 -25 15
-18 0 -23 -4 -19 -15z"/>
<path d="M5945 7130 c-3 -5 -24 -10 -46 -10 -28 0 -39 -4 -39 -15 0 -17 25
-20 35 -5 3 6 19 10 34 10 15 0 36 7 47 15 19 14 19 14 -3 15 -12 0 -25 -4
-28 -10z"/>
<path d="M6546 6723 c-3 -3 -3 -16 0 -27 3 -12 1 -33 -4 -46 -10 -28 10 -91
22 -71 6 8 12 9 20 2 19 -16 36 29 29 72 -5 34 -53 84 -67 70z"/>
<path d="M7162 6718 c-5 -7 -12 -24 -14 -38 -2 -20 -9 -26 -38 -28 -19 -2 -38
-9 -42 -15 -8 -13 9 -37 27 -37 7 0 24 -9 37 -20 23 -18 26 -28 32 -132 17
-281 33 -311 29 -54 l-2 153 47 31 c46 31 47 31 63 12 15 -17 18 -17 38 -4 22
16 29 44 11 44 -5 0 -10 11 -10 25 0 18 -5 25 -19 25 -10 0 -21 -7 -25 -15 -8
-22 -32 -18 -58 8 -51 50 -64 58 -76 45z"/>
<path d="M7786 6714 c-9 -8 -16 -22 -16 -29 0 -17 -14 -26 -48 -30 -14 -1 -28
-8 -30 -14 -2 -6 -11 -11 -20 -11 -9 -1 6 -11 34 -23 62 -27 84 -44 84 -66 0
-10 5 -7 13 9 10 20 24 27 65 33 28 5 52 12 52 17 0 5 7 16 16 24 37 37 140 3
164 -54 7 -16 10 -48 8 -70 -2 -22 0 -40 4 -40 5 0 8 25 8 55 0 53 1 56 40 80
45 28 54 55 17 48 -27 -5 -51 18 -52 50 0 37 -19 34 -38 -5 -19 -38 -19 -38
-82 -38 -47 0 -64 4 -69 15 -6 17 -51 20 -61 5 -17 -28 -70 5 -58 37 7 19 -14
24 -31 7z"/>
<path d="M9244 6695 c-17 -22 -35 -35 -50 -35 -13 0 -27 -8 -33 -17 -8 -14
-12 -15 -25 -4 -9 7 -16 21 -16 30 0 12 -5 10 -19 -9 -16 -20 -21 -22 -35 -11
-9 7 -16 20 -16 27 0 27 -30 14 -43 -18 -11 -28 -11 -37 2 -60 15 -26 16 -26
50 -12 19 8 40 13 47 10 7 -3 20 1 30 9 15 11 24 10 54 -3 19 -9 45 -25 57
-36 21 -18 24 -18 40 -4 10 9 40 26 66 37 63 29 62 55 -3 59 -46 3 -73 23 -64
47 12 29 -17 23 -42 -10z"/>
<path d="M9865 6720 c-3 -5 -3 -20 1 -34 9 -36 -23 -49 -105 -42 -36 3 -99 8
-140 11 -41 3 -81 11 -88 17 -11 9 -22 8 -46 -5 -18 -9 -41 -17 -51 -19 -16
-2 -14 -5 10 -18 16 -8 39 -22 50 -33 18 -15 22 -16 27 -4 12 32 267 28 333
-4 16 -8 31 -6 67 11 57 27 61 48 10 52 -36 3 -38 5 -36 34 3 31 -19 54 -32
34z"/>
<path d="M11311 6708 c-12 -12 -21 -27 -21 -34 0 -6 -11 -19 -25 -28 l-25 -17
45 -34 45 -35 45 32 c52 37 58 58 16 58 -34 0 -52 19 -45 47 8 30 -12 37 -35
11z"/>
<path d="M6838 6714 c-12 -20 -19 -102 -9 -109 16 -9 91 16 91 31 0 16 -28 44
-44 44 -7 0 -17 10 -23 22 -5 12 -12 18 -15 12z"/>
<path d="M8647 6714 c-3 -3 -1 -17 6 -31 8 -18 8 -29 -1 -44 -19 -30 -14 -47
17 -63 26 -14 30 -14 41 -1 19 23 7 112 -16 130 -20 15 -37 19 -47 9z"/>
<path d="M10420 6710 c0 -5 5 -10 10 -10 6 0 10 5 10 10 0 6 -4 10 -10 10 -5
0 -10 -4 -10 -10z"/>
<path d="M11135 6695 c-4 -11 -11 -28 -16 -37 -5 -11 -5 -27 3 -43 12 -26 35
-27 85 -3 l22 11 -22 28 c-11 16 -25 29 -30 29 -6 0 -16 8 -23 18 -12 16 -13
16 -19 -3z"/>
<path d="M10416 6666 c-10 -15 -12 -27 -6 -31 6 -3 10 -17 10 -31 0 -35 17
-29 30 11 8 25 8 40 0 55 -14 25 -14 25 -34 -4z"/>
<path d="M10640 6668 l-45 -20 37 -39 c21 -22 38 -47 38 -56 0 -14 2 -14 14 2
10 14 24 19 49 17 22 -2 39 3 48 14 7 9 23 20 36 25 33 12 29 26 -12 43 -19 8
-35 20 -35 25 0 18 -81 11 -130 -11z"/>
<path d="M14281 6671 c-23 -14 -2 -31 37 -30 20 0 30 3 22 6 -8 3 -22 12 -30
19 -9 8 -21 10 -29 5z"/>
<path d="M9262 6460 c0 -19 2 -27 5 -17 2 9 2 25 0 35 -3 9 -5 1 -5 -18z"/>
<path d="M14277 6473 c-15 -14 -7 -34 12 -28 26 8 46 -18 26 -35 -12 -10 -18
-10 -29 -1 -12 10 -17 8 -25 -8 -17 -31 -3 -53 29 -46 41 9 50 -10 46 -101 -3
-43 -8 -97 -11 -119 -4 -22 -7 -83 -8 -135 l-2 -95 -27 3 c-28 3 -28 3 -30
-57 -4 -135 -6 -126 24 -123 33 3 41 -17 36 -99 l-3 -54 -35 0 c-34 0 -35 -1
-35 -40 0 -37 2 -40 28 -41 15 -1 28 -3 30 -5 17 -30 37 -73 37 -80 0 -6 -25
-9 -57 -8 -36 2 -66 -2 -79 -11 -21 -13 -21 -14 -3 -34 23 -24 24 -44 4 -73
-14 -19 -13 -21 13 -31 105 -40 135 -38 130 12 -3 29 -6 31 -43 31 -30 0 -40
4 -43 18 -5 23 25 33 51 18 27 -17 37 -4 42 55 2 27 10 76 17 108 15 64 8 106
-24 143 -11 14 -14 37 -12 98 13 405 17 527 18 568 1 48 14 67 46 67 61 0 259
-44 316 -71 58 -27 70 -29 95 -19 46 20 53 35 24 54 -14 9 -25 22 -25 29 0 24
-25 67 -38 67 -9 0 -12 -11 -10 -32 l3 -33 -55 1 c-78 1 -237 23 -291 40 -28
9 -54 26 -68 44 -20 28 -58 40 -74 23z m30 -690 c-3 -10 -5 -4 -5 12 0 17 2
24 5 18 2 -7 2 -21 0 -30z"/>
<path d="M11311 6454 c0 -11 3 -14 6 -6 3 7 2 16 -1 19 -3 4 -6 -2 -5 -13z"/>
<path d="M6565 6440 c-4 -6 -3 -16 3 -22 13 -13 23 4 13 21 -7 10 -10 10 -16
1z"/>
<path d="M8104 6367 c-2 -7 0 -24 5 -38 9 -22 10 -21 10 14 1 37 -5 48 -15 24z"/>
<path d="M15225 6359 c-3 -10 -6 -23 -4 -30 4 -31 -3 -38 -46 -44 l-44 -7 16
-25 c9 -13 29 -27 44 -30 37 -7 57 -30 62 -73 4 -34 4 -34 5 6 1 23 9 47 17
54 8 7 15 20 15 29 0 24 -23 84 -42 112 -14 21 -17 22 -23 8z"/>
<path d="M14918 6313 c29 -4 36 -11 54 -51 20 -47 20 -47 30 -20 6 16 21 31
41 38 30 10 31 12 12 23 -11 6 -54 12 -95 12 -41 1 -60 0 -42 -2z"/>
<path d="M9493 6275 c0 -22 2 -30 4 -17 2 12 2 30 0 40 -3 9 -5 -1 -4 -23z"/>
<path d="M15672 6250 c-7 -12 -23 -20 -40 -20 -16 0 -37 -6 -47 -14 -20 -15
-26 -8 61 -62 l27 -16 -8 -137 c-5 -75 -9 -242 -9 -371 -1 -129 -5 -241 -9
-247 -5 -7 -17 -13 -28 -13 -32 0 -36 -31 -6 -54 19 -15 27 -31 27 -53 0 -59
46 -54 55 5 3 21 10 44 14 52 8 15 -12 94 -28 114 -10 12 -8 231 4 515 l8 184
31 29 31 28 -28 22 c-16 11 -32 29 -36 39 -6 18 -7 18 -19 -1z"/>
<path d="M16112 6258 c-7 -9 -7 -18 3 -31 12 -17 13 -16 18 2 7 27 -7 46 -21
29z"/>
<path d="M16225 6239 c-4 -5 -4 -21 -1 -34 11 -43 -49 -61 -82 -25 -18 20 -19
20 -35 2 -19 -21 -48 -21 -187 -3 -46 6 -102 11 -124 11 -61 0 -31 -18 39 -23
107 -9 251 -51 266 -79 13 -24 31 -23 47 3 19 30 56 22 60 -13 4 -37 27 -36
41 2 9 28 13 30 68 32 56 2 57 2 11 5 -62 5 -88 35 -81 93 5 38 -7 54 -22 29z"/>
<path d="M15458 6223 c12 -2 30 -2 40 0 9 3 -1 5 -23 4 -22 0 -30 -2 -17 -4z"/>
<path d="M15105 6180 c-3 -5 1 -10 9 -10 9 0 16 5 16 10 0 6 -4 10 -9 10 -6 0
-13 -4 -16 -10z"/>
<path d="M16656 6159 c-3 -8 -4 -25 -3 -39 2 -22 -3 -25 -43 -31 -27 -4 -67
-1 -100 7 -30 8 -63 14 -75 13 -34 -1 35 -28 74 -29 20 0 44 -10 63 -25 16
-14 40 -25 52 -25 31 0 54 -27 59 -70 4 -35 4 -35 5 6 1 27 9 47 22 59 18 16
19 21 6 39 -7 12 -17 36 -20 53 -9 37 -33 63 -40 42z"/>
<path d="M5841 6121 c0 -14 -9 -33 -18 -44 -17 -18 -17 -19 1 -33 17 -12 22
-12 38 3 15 14 16 18 4 27 -8 6 -17 25 -19 41 -3 24 -4 25 -6 6z"/>
<path d="M14777 6123 c-2 -5 -7 -20 -11 -35 -4 -18 -13 -28 -25 -28 -24 0 -45
-25 -37 -45 3 -8 17 -20 30 -25 34 -13 43 -56 35 -170 -4 -58 -2 -112 4 -137
7 -28 8 -52 2 -69 -12 -34 -35 -43 -35 -15 0 37 -16 30 -29 -14 -15 -51 -6
-124 15 -132 8 -3 23 2 33 11 10 9 22 16 28 16 17 0 21 20 16 90 -3 36 -5 130
-6 210 -1 129 1 151 22 199 17 42 20 60 12 75 -6 12 -15 33 -21 49 -9 26 -24
35 -33 20z"/>
<path d="M15177 6116 c-10 -10 -15 -26 -13 -35 7 -21 -4 -37 -29 -39 -11 -1
-42 -5 -69 -8 -29 -4 -57 -2 -70 5 -17 9 -29 9 -54 -2 -29 -12 -31 -15 -17
-27 14 -12 31 -13 93 -9 9 1 23 6 29 12 9 6 23 5 43 -3 16 -7 37 -10 45 -6 11
4 19 -3 25 -19 10 -26 34 -33 46 -14 4 7 9 8 17 0 7 -7 16 -3 28 14 35 44 15
113 -23 79 -20 -19 -25 -12 -30 40 -3 29 -4 29 -21 12z"/>
<path d="M5993 6113 c-14 -3 -23 -12 -23 -23 0 -17 4 -18 30 -9 17 6 30 17 30
25 0 8 -3 13 -7 13 -5 -1 -18 -4 -30 -6z"/>
<path d="M17063 6101 c-30 -25 -29 -37 4 -36 28 0 43 -19 21 -28 -7 -2 -47 -1
-88 3 -41 4 -80 3 -86 -1 -5 -5 -26 -6 -46 -3 -43 7 -55 -7 -28 -31 13 -12 21
-32 21 -59 2 -32 3 -35 6 -11 10 83 18 89 78 55 20 -11 41 -18 46 -14 16 9 77
-5 94 -22 17 -17 20 -85 5 -113 -8 -16 -18 -216 -20 -393 l0 -68 -34 0 c-37 0
-45 -10 -38 -48 3 -14 17 -28 37 -36 21 -9 35 -23 39 -40 8 -34 34 -33 42 2 4
15 11 33 17 39 12 17 0 115 -18 139 -16 22 -19 163 -8 377 l6 128 34 26 c33
25 36 26 62 10 19 -11 40 -14 64 -10 24 3 43 1 52 -7 9 -8 35 -14 58 -15 23
-1 65 -11 92 -21 l50 -20 6 -64 6 -65 1 56 c2 48 5 57 27 69 19 10 27 10 39 1
9 -8 21 -9 28 -4 7 4 38 10 68 13 l55 5 -25 23 c-25 23 -64 29 -75 12 -9 -15
-61 -12 -74 4 -7 8 -14 24 -16 36 -7 34 -15 37 -33 13 -21 -26 -114 -42 -137
-23 -13 11 -91 20 -180 20 -41 0 -110 33 -101 49 6 9 -15 71 -24 71 -3 -1 -15
-9 -27 -19z"/>
<path d="M18415 6100 c3 -5 8 -10 11 -10 2 0 4 5 4 10 0 6 -5 10 -11 10 -5 0
-7 -4 -4 -10z"/>
<path d="M18492 6091 c-11 -6 -10 -10 3 -15 10 -3 24 -1 31 5 10 8 22 8 45 0
40 -14 39 -14 39 4 0 11 -12 15 -52 15 -29 0 -59 -4 -66 -9z"/>
<path d="M5656 6035 c-6 -17 24 -21 40 -6 5 5 27 11 49 14 30 3 25 4 -21 5
-47 2 -63 -2 -68 -13z"/>
<path d="M7905 5999 c-4 -6 -8 -38 -10 -72 -3 -59 -5 -63 -36 -79 -31 -16 -34
-16 -51 -1 -10 9 -18 24 -18 35 0 10 -4 18 -10 18 -5 0 -9 -8 -8 -17 3 -24
-11 -94 -22 -114 -6 -11 -4 -23 5 -35 31 -41 10 -84 -47 -98 -14 -3 -110 -6
-213 -6 -182 -1 -214 3 -293 36 -31 13 -33 16 -27 52 11 61 15 71 36 77 23 8
25 24 3 40 -9 6 -22 40 -29 76 l-13 64 -1 -56 c-1 -39 -6 -61 -20 -75 -16 -17
-16 -23 -5 -39 10 -13 12 -36 7 -79 -6 -67 -15 -84 -51 -97 -28 -11 -25 -31 6
-39 12 -3 31 -20 42 -38 34 -55 69 -52 70 5 0 16 8 25 25 29 14 4 29 4 32 1 3
-4 14 -2 24 3 30 17 347 21 404 6 43 -11 52 -18 61 -47 16 -46 32 -48 36 -2
l3 38 50 3 c27 2 55 8 62 14 19 16 105 17 130 2 12 -7 23 -24 25 -36 4 -29 41
-32 46 -3 3 11 10 24 18 28 20 11 17 23 -11 51 -14 14 -25 33 -25 42 0 11 -8
5 -23 -17 -22 -33 -24 -34 -87 -32 -124 3 -190 15 -201 34 -12 24 3 55 31 64
28 9 40 -2 40 -36 0 -38 9 -37 50 9 40 46 47 104 17 139 -15 17 -18 34 -15 92
1 39 2 71 1 71 -1 0 -5 -5 -8 -11z"/>
<path d="M2055 5981 c-3 -5 -1 -13 5 -16 13 -8 153 -22 169 -17 23 8 10 30
-20 36 -48 9 -147 7 -154 -3z"/>
<path d="M17966 5952 c-4 -11 -24 -25 -46 -32 -22 -7 -40 -16 -40 -19 1 -17
30 -40 56 -47 16 -4 32 -12 36 -18 9 -13 36 1 52 27 10 15 7 24 -23 86 -11 23
-29 24 -35 3z"/>
<path d="M5237 5944 c4 -12 14 -14 47 -9 72 12 76 24 9 25 -53 0 -61 -2 -56
-16z"/>
<path d="M17777 5932 c-15 -17 -15 -19 14 -36 25 -15 33 -16 47 -5 9 7 19 15
21 16 2 2 -4 12 -14 23 -22 25 -47 26 -68 2z"/>
<path d="M18416 5941 c-4 -5 -3 -16 0 -25 5 -13 9 -14 20 -5 8 6 14 18 14 25
0 16 -26 19 -34 5z"/>
<path d="M18500 5920 c0 -11 5 -20 10 -20 6 0 10 9 10 20 0 11 -4 20 -10 20
-5 0 -10 -9 -10 -20z"/>
<path d="M9252 5910 c0 -14 2 -19 5 -12 2 6 2 18 0 25 -3 6 -5 1 -5 -13z"/>
<path d="M4970 5904 c0 -12 6 -15 23 -10 12 3 25 6 30 6 4 0 7 5 7 10 0 6 -13
10 -30 10 -21 0 -30 -5 -30 -16z"/>
<path d="M18124 5906 c-9 -24 4 -66 21 -66 17 0 20 26 4 35 -6 4 -8 13 -5 21
3 7 1 16 -5 19 -5 4 -12 -1 -15 -9z"/>
<path d="M18227 5887 c-9 -16 -17 -34 -17 -41 0 -18 37 -49 44 -38 3 5 19 12
36 16 39 7 104 -27 120 -64 l12 -24 20 36 c24 41 47 55 59 36 5 -8 10 -3 14
14 9 34 -2 53 -20 38 -10 -8 -21 -8 -41 3 -25 13 -29 13 -43 -4 -14 -16 -24
-17 -66 -11 -44 6 -50 10 -53 34 -5 40 -44 43 -65 5z"/>
<path d="M1126 5874 c-18 -13 -17 -14 19 -14 21 0 36 1 34 3 -2 1 -11 8 -19
14 -11 9 -20 8 -34 -3z"/>
<path d="M9096 5864 c-11 -8 -34 -14 -52 -14 -34 0 -57 -19 -49 -41 3 -9 -8
-21 -27 -33 -30 -17 -31 -19 -13 -27 11 -4 30 -8 42 -8 13 -1 32 -14 45 -31
23 -32 38 -38 38 -16 0 16 71 56 101 56 25 0 15 18 -17 30 -15 6 -24 18 -24
32 -1 13 -6 33 -13 45 -11 19 -14 20 -31 7z"/>
<path d="M1038 5863 c6 -2 18 -2 25 0 6 3 1 5 -13 5 -14 0 -19 -2 -12 -5z"/>
<path d="M1206 5862 c6 -4 13 -15 17 -24 8 -22 33 -23 41 -2 9 24 -2 34 -37
34 -18 0 -27 -4 -21 -8z"/>
<path d="M9247 5863 c-4 -3 -7 -26 -7 -50 0 -28 -5 -46 -14 -49 -12 -5 -11 -9
5 -25 25 -25 24 -42 -5 -76 l-24 -28 -213 4 c-118 1 -235 6 -262 11 -68 10
-162 -10 -154 -34 3 -8 74 -10 253 -8 162 2 267 0 299 -8 28 -6 60 -11 72 -11
13 1 29 -10 39 -24 21 -32 32 -32 44 0 8 21 16 25 49 25 24 0 46 7 56 17 16
15 15 17 -7 29 -12 7 -37 13 -53 14 -17 0 -36 5 -43 12 -18 18 -14 56 7 77 16
16 17 20 5 25 -9 3 -14 20 -14 44 0 38 -19 69 -33 55z"/>
<path d="M9484 5845 c-8 -20 4 -32 36 -37 14 -2 25 -10 25 -18 0 -10 -8 -14
-23 -12 -34 5 -54 -15 -41 -40 8 -15 17 -19 39 -14 23 4 30 1 36 -16 6 -19 8
-16 20 18 8 21 14 46 14 55 0 9 7 22 15 29 14 11 13 15 -5 27 -13 9 -31 12
-46 9 -13 -4 -33 -2 -44 4 -16 9 -22 7 -26 -5z"/>
<path d="M4738 5843 c7 -3 16 -2 19 1 4 3 -2 6 -13 5 -11 0 -14 -3 -6 -6z"/>
<path d="M6887 5837 c-11 -8 -15 -20 -11 -35 7 -26 21 -25 41 5 11 17 11 22 0
31 -10 9 -18 9 -30 -1z"/>
<path d="M7365 5839 c-4 -5 -17 -9 -28 -8 -41 3 -55 -1 -61 -16 -4 -10 6 -18
37 -26 23 -6 48 -16 55 -21 8 -7 12 -7 12 1 0 6 11 16 25 21 14 5 25 14 25 19
0 16 -58 43 -65 30z"/>
<path d="M10666 5835 c-4 -11 3 -19 22 -27 24 -10 25 -12 7 -16 -32 -7 -57
-33 -45 -47 18 -21 45 -23 68 -4 23 18 30 49 11 49 -20 0 3 20 34 29 31 9 31
9 5 10 -15 1 -30 6 -33 11 -10 16 -62 12 -69 -5z"/>
<path d="M16841 5834 c0 -11 3 -14 6 -6 3 7 2 16 -1 19 -3 4 -6 -2 -5 -13z"/>
<path d="M8035 5831 l-50 -7 40 -5 c34 -3 41 -8 49 -34 21 -71 21 -72 35 -47
6 12 13 39 14 59 2 43 -2 45 -88 34z"/>
<path d="M8646 5831 c-3 -5 1 -12 10 -15 21 -8 56 3 49 15 -8 12 -52 12 -59 0z"/>
<path d="M16602 5832 c-7 -5 -12 -22 -12 -38 1 -16 -2 -47 -5 -69 -5 -31 -3
-44 8 -54 13 -10 19 -9 33 7 10 12 24 18 35 15 23 -6 49 13 49 36 0 9 -11 28
-24 44 -19 22 -25 24 -30 12 -11 -31 -28 -16 -22 20 7 36 -3 45 -32 27z"/>
<path d="M4560 5815 c0 -18 17 -18 85 0 l50 13 -67 1 c-54 1 -68 -2 -68 -14z"/>
<path d="M8510 5819 c0 -5 5 -7 10 -4 6 3 10 8 10 11 0 2 -4 4 -10 4 -5 0 -10
-5 -10 -11z"/>
<path d="M11303 5775 c7 -68 -7 -111 -42 -129 -24 -13 -28 -13 -52 11 -26 24
-27 24 -60 8 -28 -15 -57 -17 -213 -13 -100 3 -192 10 -206 16 -20 7 -34 6
-60 -5 -58 -26 -133 -33 -202 -18 -62 13 -109 8 -115 -12 -5 -14 45 -21 168
-23 121 -1 153 -9 157 -38 3 -17 10 -22 34 -22 26 0 29 2 18 15 -7 9 -10 18
-7 21 11 11 127 26 252 33 119 5 133 4 172 -15 33 -16 43 -18 47 -8 3 8 17 16
31 20 30 7 65 -18 65 -48 0 -33 31 -16 44 23 11 30 10 41 0 60 -8 14 -13 57
-14 102 0 51 -4 77 -11 77 -8 0 -10 -17 -6 -55z"/>
<path d="M5802 5800 c-4 -3 -15 -17 -25 -32 -15 -24 -24 -28 -62 -28 -24 0
-70 -7 -102 -16 -32 -9 -77 -19 -101 -23 -54 -10 -70 -25 -17 -18 132 20 175
26 216 35 25 5 71 7 102 4 50 -4 58 -2 81 21 14 15 26 35 26 47 0 18 -5 20
-55 18 -31 -1 -59 -5 -63 -8z"/>
<path d="M16130 5743 l0 -28 148 -1 c95 -1 131 1 102 6 -25 4 -67 14 -95 23
-27 8 -74 18 -102 21 -53 7 -53 7 -53 -21z"/>
<path d="M18500 5756 c0 -8 5 -18 10 -21 6 -3 10 3 10 14 0 12 -4 21 -10 21
-5 0 -10 -6 -10 -14z"/>
<path d="M6887 5753 c-11 -10 -8 -43 3 -43 6 0 10 11 10 25 0 26 -2 29 -13 18z"/>
<path d="M5327 5743 c-4 -3 -7 -19 -7 -35 0 -18 -5 -28 -15 -28 -9 0 -15 9
-15 21 0 25 -22 21 -26 -5 -1 -10 -10 -26 -18 -35 -9 -10 -16 -20 -16 -24 0
-12 45 -30 80 -31 33 -1 35 -3 41 -41 l6 -40 2 35 c1 37 34 100 51 100 18 0
11 18 -9 25 -11 3 -24 19 -30 35 -9 28 -29 38 -44 23z"/>
<path d="M7350 5736 c0 -9 -5 -16 -10 -16 -12 0 21 -49 33 -50 13 0 7 57 -8
70 -12 10 -15 10 -15 -4z"/>
<path d="M16905 5739 c-10 -15 3 -25 16 -12 7 7 7 13 1 17 -6 3 -14 1 -17 -5z"/>
<path d="M15001 5726 c-9 -10 -8 -16 4 -26 12 -10 15 -23 10 -50 -11 -64 -8
-122 6 -131 23 -14 27 -1 23 83 -1 45 1 89 5 97 18 35 -23 58 -48 27z"/>
<path d="M17525 5684 c-6 -36 -11 -43 -36 -48 -40 -8 -41 -43 -1 -48 26 -3 27
-6 35 -73 10 -89 2 -138 -21 -133 -11 3 -16 12 -15 26 2 13 -3 22 -11 22 -17
0 -31 -95 -21 -140 7 -33 38 -42 49 -14 3 8 10 13 15 10 4 -3 15 2 23 12 12
14 13 31 5 100 -8 63 -8 88 1 103 7 10 12 31 12 46 0 49 10 55 73 45 59 -9
117 -5 117 8 0 12 -28 20 -70 20 -87 1 -110 9 -110 39 0 11 -9 29 -19 42 l-20
24 -6 -41z"/>
<path d="M17922 5698 c-15 -15 -16 -48 0 -48 6 0 1 -11 -12 -25 -28 -30 -37
-31 -69 -6 -25 19 -29 19 -79 -15 -2 -2 4 -16 14 -33 20 -34 38 -39 60 -16 23
22 49 18 62 -10 13 -28 39 -33 49 -9 3 8 12 13 20 10 14 -6 63 35 63 52 0 16
-23 30 -55 34 -24 2 -29 7 -26 23 7 37 6 48 -4 52 -6 2 -16 -2 -23 -9z"/>
<path d="M4774 5645 c-8 -20 4 -35 27 -35 10 0 19 -4 19 -10 0 -5 -11 -10 -25
-10 -16 0 -25 6 -25 16 0 26 -24 10 -43 -29 -10 -22 -24 -37 -35 -37 -11 0 -7
-6 14 -19 41 -25 131 -22 151 5 16 22 17 56 1 72 -7 7 -8 12 -4 12 5 0 3 6 -4
14 -6 8 -18 12 -26 9 -7 -3 -17 2 -20 11 -8 20 -23 21 -30 1z"/>
<path d="M3627 5636 c-6 -15 12 -26 43 -26 15 0 30 18 30 36 0 12 -69 2 -73
-10z"/>
<path d="M6555 5643 c-34 -8 -42 -23 -21 -39 25 -18 57 -18 82 0 19 15 19 15
-1 30 -21 16 -27 17 -60 9z"/>
<path d="M11370 5635 c0 -9 10 -15 26 -15 23 0 24 2 10 15 -8 8 -19 15 -25 15
-6 0 -11 -7 -11 -15z"/>
<path d="M9837 5633 c-9 -9 12 -33 29 -33 8 0 14 9 14 20 0 19 -28 28 -43 13z"/>
<path d="M16907 5633 c-4 -3 -7 -26 -7 -50 0 -61 24 -52 28 10 3 43 -5 57 -21
40z"/>
<path d="M3515 5615 c-23 -11 -25 -14 -10 -14 11 0 34 6 50 14 23 10 25 13 10
13 -11 0 -33 -6 -50 -13z"/>
<path d="M5153 5623 c9 -2 23 -2 30 0 6 3 -1 5 -18 5 -16 0 -22 -2 -12 -5z"/>
<path d="M8177 5624 c-9 -10 2 -24 19 -24 8 0 14 7 14 15 0 15 -21 21 -33 9z"/>
<path d="M9950 5616 c0 -9 7 -16 16 -16 17 0 14 22 -4 28 -7 2 -12 -3 -12 -12z"/>
<path d="M3390 5595 c0 -15 26 -20 54 -9 24 9 9 24 -25 24 -19 0 -29 -5 -29
-15z"/>
<path d="M4245 5539 c5 -16 -2 -29 -29 -54 -57 -52 -44 -78 47 -93 40 -7 43
-6 60 27 14 25 16 39 9 55 -6 12 -13 29 -16 39 -4 13 -12 17 -26 12 -16 -5
-20 -2 -20 14 0 12 -6 21 -16 21 -11 0 -14 -6 -9 -21z"/>
<path d="M6583 5535 c-21 -24 -15 -40 7 -20 20 18 26 35 13 35 -5 -1 -14 -7
-20 -15z"/>
<path d="M11160 5532 c-26 -21 -20 -42 11 -42 14 0 19 7 19 30 0 35 -1 36 -30
12z"/>
<path d="M2845 5499 c-16 -3 -63 -7 -102 -8 -58 -1 -73 -4 -73 -16 0 -9 -8
-19 -17 -22 -34 -13 20 -21 117 -17 52 2 100 4 106 4 16 0 24 48 10 58 -6 5
-24 5 -41 1z"/>
<path d="M18260 5470 c0 -19 3 -21 12 -12 9 9 9 15 0 24 -9 9 -12 7 -12 -12z"/>
<path d="M4810 5455 c0 -8 4 -15 9 -15 5 0 11 7 15 15 3 9 0 15 -9 15 -8 0
-15 -7 -15 -15z"/>
<path d="M3715 5430 c-3 -5 -3 -21 1 -35 6 -23 4 -25 -17 -20 -18 4 -29 -2
-43 -21 -19 -27 -19 -27 5 -45 31 -24 91 -25 112 -1 21 23 21 45 1 85 -23 43
-46 58 -59 37z"/>
<path d="M16217 5433 c-4 -3 -6 -83 -5 -177 1 -94 3 -153 4 -131 2 22 9 98 15
168 8 84 9 131 2 138 -5 5 -12 6 -16 2z"/>
<path d="M16045 5410 c-8 -13 4 -32 16 -25 12 8 12 35 0 35 -6 0 -13 -4 -16
-10z"/>
<path d="M4380 5401 c0 -6 5 -13 10 -16 6 -3 10 1 10 9 0 9 -4 16 -10 16 -5 0
-10 -4 -10 -9z"/>
<path d="M14773 5325 c0 -38 2 -53 4 -32 2 20 2 52 0 70 -2 17 -4 1 -4 -38z"/>
<path d="M3249 5363 c-1 -5 -2 -17 -3 -28 -1 -15 -7 -19 -24 -17 -31 4 -61
-60 -40 -86 22 -28 31 -32 79 -32 39 0 47 4 57 25 7 14 12 44 12 66 0 33 -4
41 -24 49 -13 5 -27 14 -31 19 -7 13 -24 15 -26 4z"/>
<path d="M4281 5354 c0 -11 3 -14 6 -6 3 7 2 16 -1 19 -3 4 -6 -2 -5 -13z"/>
<path d="M16038 5358 c-3 -7 -3 -34 0 -60 3 -39 8 -48 23 -48 17 0 19 6 15 48
-2 26 -4 53 -5 60 -1 6 -7 12 -15 12 -8 0 -16 -6 -18 -12z"/>
<path d="M5945 5350 c-3 -5 -22 -10 -41 -10 -45 0 -41 -24 4 -28 25 -3 32 -9
37 -32 9 -40 0 -50 -41 -50 -24 0 -34 -4 -31 -12 2 -7 11 -13 20 -12 10 0 37
1 62 2 l45 2 -5 58 c-2 33 -7 66 -11 75 -7 19 -29 23 -39 7z"/>
<path d="M5352 5290 c0 -14 2 -19 5 -12 2 6 2 18 0 25 -3 6 -5 1 -5 -13z"/>
<path d="M2765 5260 c4 -6 11 -8 16 -5 14 9 11 15 -7 15 -8 0 -12 -5 -9 -10z"/>
<path d="M2820 5235 c-7 -8 -19 -15 -27 -15 -8 0 -27 -7 -43 -15 -28 -14 -31
-14 -47 5 -25 29 -31 25 -35 -22 -2 -34 -7 -44 -23 -46 -11 -2 -24 -8 -29 -12
-16 -16 154 -2 179 14 24 16 25 15 34 -16 7 -26 9 -28 10 -10 1 14 15 32 41
50 40 28 50 42 28 42 -7 0 -24 9 -38 20 -30 24 -34 24 -50 5z"/>
<path d="M3056 5234 c-68 -18 -70 -26 -6 -19 68 8 80 12 80 25 0 12 -11 11
-74 -6z"/>
<path d="M1140 5154 c0 -42 5 -70 14 -79 11 -12 14 -5 19 46 6 69 0 99 -19 99
-11 0 -14 -16 -14 -66z"/>
<path d="M2934 5201 c5 -8 56 -3 56 5 0 2 -14 4 -31 4 -16 0 -28 -4 -25 -9z"/>
<path d="M15661 5165 c-2 -65 -11 -85 -34 -82 -19 2 -23 -6 -32 -56 -5 -32
-15 -61 -22 -65 -18 -11 21 -52 51 -52 29 0 33 -19 16 -80 -5 -20 -14 -89 -18
-154 -8 -112 -11 -121 -36 -143 -25 -22 -35 -23 -157 -23 -118 0 -133 2 -162
23 -18 12 -35 27 -39 32 -12 15 -9 158 3 193 7 21 7 42 0 67 -7 28 -6 43 6 68
9 18 19 39 23 47 4 8 17 20 29 26 21 11 21 12 3 16 -13 4 -25 23 -36 56 -21
62 -38 70 -51 23 -9 -31 -14 -35 -45 -35 -32 -1 -35 -4 -38 -34 -3 -30 0 -34
36 -49 33 -12 41 -21 45 -47 4 -31 0 -48 -28 -96 -12 -21 -12 -28 0 -47 13
-20 13 -33 0 -108 -8 -48 -22 -93 -30 -101 -8 -9 -15 -18 -15 -22 1 -20 28
-81 48 -107 21 -29 22 -29 37 -11 8 11 15 32 15 48 0 36 30 52 84 44 22 -4 79
-8 126 -10 145 -5 136 -2 164 -51 15 -25 33 -45 41 -45 14 0 30 53 21 69 -12
19 55 27 202 23 151 -4 153 -5 162 -28 6 -14 18 -24 30 -24 13 0 20 -7 20 -20
0 -34 28 -23 32 13 3 28 7 32 32 32 25 0 31 -5 39 -34 8 -31 10 -33 24 -18 20
20 35 114 23 138 -6 10 -11 75 -12 146 l-1 128 -7 -95 c-4 -52 -10 -104 -13
-115 -3 -11 -8 -32 -11 -47 -6 -25 -8 -26 -38 -16 -23 8 -36 8 -49 -1 -10 -6
-26 -11 -35 -11 -9 0 -29 -9 -45 -21 -21 -15 -38 -19 -56 -14 -14 3 -71 10
-127 15 -103 9 -170 29 -178 52 -2 7 1 93 6 191 9 149 14 181 28 191 15 11 16
14 2 28 -11 11 -18 48 -23 124 -5 60 -9 91 -10 69z"/>
<path d="M17076 5160 c-4 -25 -14 -43 -26 -50 -13 -7 -20 -21 -20 -40 0 -32
-14 -40 -24 -14 -3 9 -7 34 -8 57 -1 41 -1 41 -5 7 -3 -19 -8 -39 -12 -45 -5
-5 -11 -23 -15 -39 -7 -27 -9 -28 -45 -22 -24 4 -44 1 -55 -7 -17 -13 -17 -14
-1 -31 11 -10 26 -15 36 -12 11 3 28 9 38 12 15 4 23 -2 35 -25 20 -39 20 -49
-3 -95 -11 -20 -24 -51 -30 -68 -15 -44 -35 -30 -41 30 -8 71 -20 77 -20 8 0
-32 -5 -66 -11 -77 -7 -15 -7 -24 1 -34 14 -17 35 -10 46 16 9 20 9 20 36 0
43 -34 50 -28 43 34 -4 30 -4 75 -1 100 6 40 11 46 39 53 48 13 52 -5 40 -174
l-10 -145 -42 -39 c-24 -22 -52 -40 -64 -41 -14 -1 -9 -5 15 -11 24 -6 39 -17
44 -31 8 -26 43 -67 58 -67 16 0 38 38 26 45 -19 12 -10 33 20 44 38 13 38 24
-1 52 l-31 22 4 171 c4 135 8 180 23 214 17 43 17 43 -5 67 -21 22 -22 30 -16
100 7 79 -6 106 -18 35z"/>
<path d="M14755 5158 c-4 -15 -3 -37 1 -50 11 -34 5 -518 -7 -540 -7 -13 -17
-17 -29 -13 -14 4 -23 -2 -34 -23 -13 -26 -13 -32 -1 -48 8 -11 15 -27 15 -36
0 -11 8 -18 19 -18 11 0 23 -9 26 -20 13 -40 54 -8 55 41 0 15 7 29 15 33 23
8 18 32 -10 50 l-24 16 1 292 c0 179 -3 303 -10 318 l-10 25 -7 -27z m-5 -704
c0 -14 -3 -14 -15 -4 -8 7 -15 14 -15 16 0 2 7 4 15 4 8 0 15 -7 15 -16z"/>
<path d="M2187 5138 c-16 -17 -26 -37 -23 -44 5 -14 -24 -44 -45 -44 -8 0 1
-9 20 -21 18 -11 40 -18 47 -15 8 3 25 1 39 -4 23 -9 25 -15 26 -72 0 -48 2
-58 9 -40 5 12 16 25 25 28 21 9 19 31 -5 37 -27 7 -25 29 6 79 14 23 22 43
16 47 -5 3 -14 16 -21 29 -6 12 -17 22 -23 22 -6 0 -19 7 -28 15 -14 13 -19
11 -43 -17z m53 -27 c0 -5 -7 -12 -16 -15 -24 -9 -28 -7 -14 9 14 17 30 20 30
6z"/>
<path d="M17942 5105 c-17 -64 -16 -115 3 -115 12 0 15 16 15 80 0 44 -1 80
-3 80 -2 0 -8 -20 -15 -45z"/>
<path d="M2435 5113 c-91 -23 -107 -32 -63 -32 20 -1 40 4 43 9 3 6 32 10 63
10 64 0 102 8 102 21 0 13 -77 9 -145 -8z"/>
<path d="M16636 5103 c-3 -4 -6 -17 -6 -31 0 -17 -8 -27 -30 -35 -25 -9 -30
-17 -30 -43 0 -27 5 -34 31 -43 30 -10 30 -11 25 -63 -3 -29 -11 -107 -17
-173 -10 -115 -13 -126 -54 -181 -6 -9 -4 -19 8 -32 9 -10 17 -28 17 -39 0
-11 9 -28 21 -39 27 -25 53 -8 57 37 2 19 9 37 15 41 6 4 57 4 113 1 63 -4
103 -2 107 4 4 7 -27 12 -83 15 -63 4 -98 11 -122 25 l-33 19 2 145 c2 114 7
158 24 213 20 65 21 71 5 97 -9 15 -16 31 -15 36 6 32 -18 63 -35 46z"/>
<path d="M1760 5046 c0 -41 -9 -51 -26 -28 -12 16 -13 15 -14 -4 0 -23 -38
-54 -67 -54 -29 0 -197 -43 -208 -53 -14 -13 101 0 166 19 42 13 57 13 75 4
12 -7 33 -10 45 -7 38 10 59 -9 59 -54 0 -25 4 -38 10 -34 6 4 8 21 4 40 -3
18 -1 35 4 39 6 3 13 24 17 45 8 48 -14 106 -44 114 -18 4 -21 1 -21 -27z"/>
<path d="M18259 4915 c-2 -71 -4 -150 -4 -175 -1 -88 -18 -173 -36 -191 -27
-27 -73 -24 -96 6 l-18 25 -43 -21 c-28 -14 -46 -18 -50 -12 -23 34 -101 41
-128 12 -18 -20 -18 -22 -1 -51 9 -16 17 -36 17 -44 0 -21 21 -17 27 6 3 11
11 20 18 20 6 0 20 9 30 20 21 24 48 26 65 5 9 -11 32 -15 80 -15 59 0 73 -4
99 -26 l31 -25 23 25 c26 28 47 34 47 13 0 -8 9 -22 19 -31 11 -10 21 -28 23
-40 5 -34 41 -32 54 3 7 18 8 33 2 39 -5 5 -3 14 7 22 23 19 43 -3 37 -41 -5
-37 8 -49 60 -49 20 0 40 -4 43 -10 8 -13 35 -13 35 0 0 14 -42 50 -52 44 -15
-10 -46 6 -51 26 -3 12 1 24 11 30 10 5 12 10 6 10 -6 0 -14 13 -17 29 -5 23
-10 28 -26 24 -38 -10 -61 14 -62 65 0 47 -17 108 -18 69 -2 -44 -35 -119 -57
-129 -51 -23 -53 -16 -53 209 -1 249 -17 363 -22 158z"/>
<path d="M2013 5023 c9 -2 25 -2 35 0 9 3 1 5 -18 5 -19 0 -27 -2 -17 -5z"/>
<path d="M15010 4928 c0 -63 -5 -119 -13 -139 -7 -19 -11 -51 -8 -74 5 -32 11
-41 29 -43 25 -4 24 -18 21 163 -3 154 -5 175 -17 187 -9 9 -12 -12 -12 -94z"/>
<path d="M16213 4930 c0 -47 2 -66 4 -42 2 23 2 61 0 85 -2 23 -4 4 -4 -43z"/>
<path d="M18060 4985 c0 -30 6 -32 19 -6 8 14 7 20 -4 25 -11 4 -15 -2 -15
-19z"/>
<path d="M17970 4960 c0 -5 5 -10 11 -10 5 0 7 5 4 10 -3 6 -8 10 -11 10 -2 0
-4 -4 -4 -10z"/>
<path d="M18350 4918 c-1 -29 -6 -73 -12 -98 -14 -61 -11 -132 8 -150 13 -13
16 -13 24 0 5 8 6 27 3 42 -5 28 11 41 20 16 3 -10 10 -8 25 6 29 25 13 61
-24 52 -22 -6 -24 -4 -25 36 -1 24 -1 64 1 89 1 26 -3 50 -9 53 -7 5 -11 -10
-11 -46z"/>
<path d="M1305 4937 c-21 -32 -67 -51 -108 -44 -26 4 -36 1 -45 -14 -16 -25
-15 -70 3 -93 13 -17 14 -14 17 25 3 41 5 44 33 44 17 0 35 3 42 8 19 12 62
-10 67 -35 3 -13 7 -32 9 -43 3 -11 5 -3 6 18 0 22 8 51 17 66 15 25 15 29 -4
60 l-20 33 -17 -25z"/>
<path d="M15368 4953 c6 -2 18 -2 25 0 6 3 1 5 -13 5 -14 0 -19 -2 -12 -5z"/>
<path d="M1851 4884 c0 -11 3 -14 6 -6 3 7 2 16 -1 19 -3 4 -6 -2 -5 -13z"/>
<path d="M17681 4820 c0 -37 -5 -70 -10 -75 -5 -6 -11 -39 -14 -75 -5 -54 -3
-69 13 -90 15 -20 22 -22 31 -13 10 10 10 24 1 65 -6 29 -10 80 -8 113 2 33 0
78 -4 100 -7 37 -8 35 -9 -25z"/>
<path d="M13897 4833 c-4 -3 -7 -26 -7 -51 l0 -44 -32 6 c-24 4 -41 0 -62 -14
l-30 -19 30 -12 c16 -6 42 -13 58 -15 16 -2 35 -9 43 -15 10 -9 18 -8 33 6 25
23 25 33 -2 62 -19 20 -21 28 -11 53 8 22 8 32 -1 40 -7 5 -16 7 -19 3z"/>
<path d="M1561 4798 c0 -28 2 -30 9 -13 12 28 12 45 0 45 -5 0 -10 -15 -9 -32z"/>
<path d="M17963 4812 c-5 -20 -15 -27 -37 -23 -4 1 -17 -1 -27 -4 -30 -10 -22
-35 16 -51 36 -14 42 -28 26 -53 -10 -15 -4 -41 9 -41 4 0 15 21 25 48 10 26
21 51 25 55 7 8 -10 70 -24 84 -4 4 -9 -3 -13 -15z"/>
<path d="M13290 4812 c0 -5 -20 -23 -45 -41 -51 -37 -58 -66 -26 -115 15 -23
17 -33 8 -47 -9 -14 -7 -22 7 -38 18 -20 18 -21 -7 -43 l-25 -22 24 -19 c24
-18 24 -19 7 -48 -13 -22 -15 -34 -7 -47 8 -12 8 -25 1 -42 -15 -39 -12 -88 7
-109 15 -16 22 -18 47 -9 26 9 34 7 55 -13 13 -12 27 -19 31 -15 5 4 7 84 5
178 -3 138 0 174 12 193 12 18 13 30 4 59 -10 32 -9 39 10 59 12 13 22 27 22
33 0 10 -64 54 -80 54 -5 0 -14 9 -20 20 -11 20 -30 27 -30 12z m46 -258 c-7
-19 -35 -18 -43 2 -4 11 1 22 12 31 16 11 20 11 28 -3 5 -8 6 -22 3 -30z m-14
-101 c-21 -17 -29 -16 -36 2 -3 8 4 21 17 30 20 14 22 14 28 -2 4 -11 1 -23
-9 -30z m-1 -64 c16 -8 18 -13 8 -25 -14 -18 -59 -19 -59 -1 0 12 19 37 28 37
2 0 12 -5 23 -11z m9 -99 c0 -5 -9 -10 -20 -10 -11 0 -20 5 -20 10 0 6 9 10
20 10 11 0 20 -4 20 -10z"/>
<path d="M17495 4784 c-7 -41 -4 -47 18 -38 22 8 29 32 14 54 -17 28 -24 25
-32 -16z"/>
<path d="M11305 4787 c-8 -12 -15 -27 -15 -33 0 -24 -59 -34 -131 -24 -45 7
-84 7 -112 0 -23 -5 -71 -10 -106 -10 -105 0 -59 -13 59 -17 166 -4 268 -18
291 -39 14 -12 19 -31 20 -68 l1 -51 8 54 c9 59 13 65 60 89 40 20 41 36 3 40
-33 4 -44 19 -37 48 8 31 -22 39 -41 11z"/>
<path d="M12704 4796 c-3 -7 -2 -49 1 -92 9 -107 7 -151 -5 -174 -6 -11 -8
-36 -4 -55 6 -36 2 -40 -66 -47 -44 -5 -30 -32 20 -38 37 -4 45 -9 45 -25 0
-15 -8 -21 -32 -23 -25 -2 -33 -8 -33 -23 0 -13 7 -19 21 -19 51 0 77 -39 39
-60 -25 -13 -26 -30 -2 -30 10 0 23 -5 29 -11 17 -17 78 3 78 27 0 12 -6 18
-16 16 -9 -1 -22 4 -28 12 -19 22 46 46 128 47 36 0 84 4 106 8 33 7 23 9 -55
10 -68 1 -106 7 -133 20 l-38 18 25 16 c16 11 47 17 83 18 86 1 115 17 33 18
-43 1 -73 7 -88 17 -13 9 -29 13 -37 10 -9 -3 -19 3 -25 15 -12 21 -1 30 35
26 12 -1 21 5 23 17 6 26 -13 42 -32 27 -12 -10 -18 -8 -31 13 -14 21 -15 31
-5 61 7 23 21 40 36 45 24 10 44 45 44 79 0 11 -12 24 -30 31 -17 7 -39 23
-49 36 -22 27 -29 30 -37 10z"/>
<path d="M14276 4788 c-7 -24 7 -116 22 -142 11 -19 19 19 9 43 -5 14 -13 49
-17 76 -6 45 -7 47 -14 23z"/>
<path d="M15097 4796 c-4 -9 -3 -25 1 -36 7 -19 8 -19 19 -1 9 15 9 23 -1 36
-12 16 -13 16 -19 1z"/>
<path d="M2042 4788 c-14 -14 -17 -158 -3 -158 6 0 4 -12 -3 -26 -15 -27 -11
-57 9 -74 9 -8 14 -2 18 26 3 19 2 45 -2 57 -5 12 -4 55 1 96 9 75 2 101 -20
79z"/>
<path d="M9259 4774 c-21 -53 -26 -59 -55 -62 -57 -7 -50 -45 11 -56 19 -4 37
-12 41 -17 4 -6 7 -119 9 -250 1 -132 6 -244 11 -249 9 -9 11 18 17 215 2 61
7 147 11 192 8 86 15 97 69 125 27 14 28 16 12 31 -9 9 -23 17 -30 17 -8 0
-20 12 -27 26 -7 15 -23 34 -35 42 -21 13 -23 12 -34 -14z"/>
<path d="M10416 4784 c-3 -9 -6 -26 -6 -38 0 -27 -18 -46 -42 -46 -10 0 -18
-4 -18 -10 0 -5 13 -10 29 -10 17 0 32 -4 35 -9 4 -5 19 -3 37 6 l30 15 -20
22 c-12 13 -21 36 -21 54 0 34 -14 43 -24 16z"/>
<path d="M1430 4774 c0 -8 5 -12 10 -9 6 4 8 11 5 16 -9 14 -15 11 -15 -7z"/>
<path d="M7801 4768 c-5 -13 -12 -31 -15 -41 -3 -9 -19 -20 -36 -24 -39 -7
-38 -40 1 -35 49 6 54 -15 51 -195 -2 -102 1 -191 9 -234 l12 -70 14 38 c7 21
13 74 12 118 -3 333 -3 334 79 336 30 1 40 3 27 8 -44 15 -92 53 -108 86 -19
40 -34 44 -46 13z"/>
<path d="M8099 4769 c-6 -12 -8 -31 -5 -44 5 -18 -1 -29 -20 -44 -18 -14 -22
-21 -11 -21 25 0 46 -44 50 -106 l3 -59 2 65 c2 38 9 73 17 84 10 13 11 24 4
37 -5 10 -7 36 -3 57 5 30 3 40 -10 45 -10 4 -20 -1 -27 -14z"/>
<path d="M8655 4778 c-8 -22 -1 -156 9 -165 5 -4 11 -2 13 5 3 6 11 12 18 12
44 0 43 99 -1 137 -31 27 -33 27 -39 11z"/>
<path d="M9870 4761 c0 -52 -20 -61 -131 -61 -55 0 -98 -4 -95 -9 3 -4 45 -9
93 -10 68 0 93 -5 113 -19 21 -16 30 -17 55 -8 77 28 98 56 40 54 -43 -2 -68
18 -61 48 4 13 2 26 -4 29 -6 4 -10 -6 -10 -24z"/>
<path d="M6568 4728 c-3 -24 -1 -51 4 -60 4 -9 8 -69 8 -132 0 -65 4 -116 9
-116 9 0 14 31 26 175 3 40 12 77 21 86 17 19 9 46 -21 71 -32 27 -43 21 -47
-24z"/>
<path d="M7162 4740 c-10 -18 -25 -30 -38 -30 -25 0 -56 -29 -33 -31 70 -4 80
-12 89 -71 l6 -43 14 43 c7 23 19 42 26 42 14 0 74 32 74 40 0 10 -96 80 -109
80 -7 0 -20 -13 -29 -30z"/>
<path d="M10685 4745 c-27 -7 -63 -18 -78 -24 -16 -6 -40 -11 -53 -11 -14 0
-22 -4 -19 -10 3 -5 22 -10 41 -10 19 0 50 -6 68 -14 58 -24 115 -30 134 -13
9 8 34 20 55 27 20 6 37 14 37 17 0 13 -37 32 -62 33 -15 0 -30 5 -33 10 -8
12 -26 11 -90 -5z"/>
<path d="M18048 4753 c7 -3 16 -2 19 1 4 3 -2 6 -13 5 -11 0 -14 -3 -6 -6z"/>
<path d="M18100 4750 c0 -5 5 -10 10 -10 6 0 10 5 10 10 0 6 -4 10 -10 10 -5
0 -10 -4 -10 -10z"/>
<path d="M17202 4738 c-7 -7 -12 -20 -12 -31 0 -24 33 -19 38 7 5 24 -11 39
-26 24z"/>
<path d="M13960 4730 c0 -5 6 -10 14 -10 8 0 18 5 21 10 3 6 -3 10 -14 10 -12
0 -21 -4 -21 -10z"/>
<path d="M15100 4706 c0 -14 5 -26 10 -26 6 0 10 9 10 19 0 11 -4 23 -10 26
-6 4 -10 -5 -10 -19z"/>
<path d="M17480 4656 c0 -59 -3 -67 -25 -82 -26 -17 -31 -42 -16 -72 5 -9 17
-36 27 -59 12 -27 26 -43 37 -43 19 0 22 13 7 41 -15 27 3 56 46 74 40 16 37
35 -5 35 -41 0 -51 17 -51 91 0 37 -4 71 -10 74 -6 4 -10 -18 -10 -59z"/>
<path d="M17330 4686 c0 -22 3 -27 11 -19 8 8 8 16 0 30 -9 16 -10 14 -11 -11z"/>
<path d="M9555 4690 c-4 -6 5 -10 19 -10 14 0 26 5 26 10 0 6 -9 10 -19 10
-11 0 -23 -4 -26 -10z"/>
<path d="M2298 4675 c-3 -4 -18 -8 -32 -9 -15 -2 -35 -11 -45 -20 -9 -9 -23
-16 -29 -16 -7 0 -12 -4 -12 -9 0 -27 133 -13 144 15 6 15 -17 48 -26 39z"/>
<path d="M14318 4614 c-5 -4 -9 -19 -9 -33 -1 -17 -3 -20 -6 -8 -3 10 -14 17
-27 17 -29 0 -45 -57 -48 -168 -3 -97 -16 -117 -73 -110 -53 6 -44 -18 10 -26
45 -7 67 -28 58 -54 -3 -7 -1 -20 3 -30 11 -25 27 82 24 162 -1 30 17 43 41
28 26 -17 39 -7 39 29 0 22 8 34 30 47 l30 19 -30 28 c-21 20 -30 39 -32 67
-2 22 -6 36 -10 32z"/>
<path d="M17601 4598 c-10 -25 1 -44 18 -34 14 9 14 43 1 51 -6 3 -14 -4 -19
-17z"/>
<path d="M17790 4596 c0 -14 5 -26 10 -26 6 0 10 9 10 19 0 11 -4 23 -10 26
-6 4 -10 -5 -10 -19z"/>
<path d="M12962 4593 c3 -15 14 -18 63 -19 121 -3 122 18 2 31 -63 6 -69 5
-65 -12z"/>
<path d="M1917 4546 c-3 -8 -2 -18 3 -21 13 -8 20 9 11 24 -6 10 -10 9 -14 -3z"/>
<path d="M1850 4520 c-8 -6 -27 -7 -42 -4 -16 3 -28 1 -28 -4 0 -6 -20 -18
-45 -29 -61 -25 -63 -60 -3 -42 22 6 36 5 46 -3 11 -10 18 -8 32 10 10 12 29
22 43 22 26 0 45 29 32 50 -8 12 -16 12 -35 0z"/>
<path d="M12972 4503 c4 -18 32 -21 68 -7 13 4 13 6 0 14 -8 6 -28 10 -43 10
-22 0 -28 -4 -25 -17z"/>
<path d="M12611 4494 c0 -11 3 -14 6 -6 3 7 2 16 -1 19 -3 4 -6 -2 -5 -13z"/>
<path d="M18550 4454 c0 -11 5 -14 16 -10 9 3 22 6 30 6 8 0 14 5 14 10 0 6
-13 10 -30 10 -21 0 -30 -5 -30 -16z"/>
<path d="M18663 4443 c15 -2 39 -2 55 0 15 2 2 4 -28 4 -30 0 -43 -2 -27 -4z"/>
<path d="M8660 4378 c0 -24 5 -50 10 -58 7 -11 10 0 10 37 0 28 -4 55 -10 58
-6 4 -10 -11 -10 -37z"/>
<path d="M18083 4413 c-121 -5 -103 -23 23 -23 80 0 105 3 102 13 -5 14 -13
15 -125 10z"/>
<path d="M1557 4373 c-14 -13 -6 -24 15 -21 27 4 36 28 11 28 -11 0 -23 -3
-26 -7z"/>
<path d="M18238 4373 c12 -2 30 -2 40 0 9 3 -1 5 -23 4 -22 0 -30 -2 -17 -4z"/>
<path d="M17758 4353 c12 -2 32 -2 45 0 12 2 2 4 -23 4 -25 0 -35 -2 -22 -4z"/>
<path d="M1420 4335 c-22 -27 4 -41 36 -20 21 13 24 19 13 26 -20 13 -35 11
-49 -6z"/>
<path d="M1302 4303 c-13 -3 -26 -11 -29 -19 -3 -8 -14 -14 -24 -14 -10 0 -19
-4 -19 -8 0 -13 42 -11 93 5 39 12 46 17 36 29 -12 14 -16 15 -57 7z"/>
<path d="M2290 4270 c0 -5 5 -10 11 -10 5 0 7 5 4 10 -3 6 -8 10 -11 10 -2 0
-4 -4 -4 -10z"/>
<path d="M13050 4255 c0 -8 5 -15 10 -15 6 0 10 7 10 15 0 8 -4 15 -10 15 -5
0 -10 -7 -10 -15z"/>
<path d="M13113 4263 c9 -2 23 -2 30 0 6 3 -1 5 -18 5 -16 0 -22 -2 -12 -5z"/>
<path d="M13892 4146 c-11 -99 -11 -120 0 -127 10 -7 14 6 16 57 2 36 2 93 0
127 -3 57 -4 53 -16 -57z"/>
<path d="M12700 4145 c-6 -8 -9 -19 -5 -25 8 -13 75 -13 95 0 13 9 12 12 -4
25 -25 19 -70 19 -86 0z"/>
<path d="M13253 4125 c0 -22 2 -30 4 -17 2 12 2 30 0 40 -3 9 -5 -1 -4 -23z"/>
<path d="M7816 4078 c-4 -39 -4 -74 2 -84 15 -27 22 20 13 91 l-7 60 -8 -67z"/>
<path d="M16260 4103 c-25 -32 -23 -39 16 -70 l31 -23 26 37 26 37 -31 23
c-40 29 -42 29 -68 -4z"/>
<path d="M12717 4063 c-4 -3 -7 -17 -7 -30 0 -23 23 -32 35 -13 3 6 17 10 31
10 13 0 24 5 24 10 0 6 -11 10 -24 10 -14 0 -28 5 -31 10 -7 12 -19 13 -28 3z"/>
<path d="M2800 4005 c-17 -20 -19 -165 -2 -165 4 0 6 18 4 40 -2 22 3 57 11
78 17 43 9 73 -13 47z"/>
<path d="M12730 3948 c0 -34 7 -38 41 -21 30 15 39 33 17 33 -7 0 -23 3 -35 6
-19 5 -23 2 -23 -18z"/>
<path d="M15255 3965 c-5 -2 -22 -6 -37 -9 -98 -22 -139 -156 -72 -236 26 -30
54 -41 157 -61 45 -8 60 -16 66 -32 19 -50 -24 -87 -100 -87 -46 0 -127 34
-136 56 -12 32 -23 10 -23 -45 l0 -59 48 -19 c66 -26 175 -24 226 3 54 28 78
63 84 122 8 93 -39 142 -159 162 -41 7 -74 19 -84 30 -24 26 -15 62 19 79 37
17 119 1 153 -31 l23 -21 0 34 c0 19 3 44 6 57 5 18 0 24 -27 36 -35 14 -126
28 -144 21z"/>
<path d="M18118 3963 l-38 -4 0 -250 0 -249 50 0 50 0 0 96 0 95 32 -3 c30 -3
34 -9 72 -95 l41 -93 56 0 56 0 -53 108 -52 107 24 19 c35 26 54 68 54 121 0
64 -23 103 -74 126 -44 19 -152 30 -218 22z m184 -113 c43 -53 9 -110 -70
-118 l-52 -5 0 78 0 78 52 -5 c38 -4 57 -12 70 -28z"/>
<path d="M14630 3710 l0 -250 139 0 c152 0 151 0 151 61 l0 29 -95 0 -95 0 0
65 0 65 70 0 70 0 0 45 0 45 -70 0 -70 0 0 51 0 50 85 -3 c92 -3 95 -2 95 65
l0 27 -140 0 -140 0 0 -250z"/>
<path d="M15680 3710 l0 -250 50 0 50 0 0 78 c0 70 3 81 28 111 l27 33 54
-111 54 -111 56 0 57 0 -78 155 -79 155 71 93 71 92 -47 3 c-25 2 -52 1 -59
-2 -7 -2 -43 -48 -81 -101 l-69 -96 -3 100 -3 101 -49 0 -50 0 0 -250z"/>
<path d="M16250 3710 l0 -250 50 0 50 0 0 250 0 250 -50 0 -50 0 0 -250z"/>
<path d="M16590 3912 l0 -48 100 4 c55 3 100 0 100 -4 0 -5 -49 -98 -109 -206
l-108 -197 183 -3 184 -3 0 50 0 50 -105 -3 c-58 -2 -105 -1 -105 1 0 2 45 88
101 191 55 103 103 194 106 202 4 12 -22 14 -171 14 l-176 0 0 -48z"/>
<path d="M17160 3710 l0 -250 115 0 115 0 0 45 0 45 -65 0 -65 0 0 205 0 205
-50 0 -50 0 0 -250z"/>
<path d="M17580 3710 l0 -250 139 0 c152 0 151 0 151 61 l0 29 -95 0 -95 0 0
65 0 65 70 0 70 0 0 45 0 45 -70 0 -70 0 0 51 0 50 85 -3 c92 -3 95 -2 95 65
l0 27 -140 0 -140 0 0 -250z"/>
<path d="M1287 3943 c-7 -12 4 -153 12 -153 12 0 29 102 22 129 -7 25 -25 38
-34 24z"/>
<path d="M13241 3931 c-10 -7 -12 -62 -12 -260 2 -275 -5 -396 -24 -414 -14
-15 -357 -14 -421 1 -29 7 -53 5 -87 -6 -55 -17 -71 -42 -27 -42 15 0 41 -8
58 -17 30 -17 37 -16 87 16 33 22 66 26 81 11 5 -5 81 -11 169 -12 151 -3 160
-4 163 -23 6 -36 25 -65 44 -65 23 0 24 26 1 39 -14 8 -15 12 -4 25 18 21 81
22 81 1 0 -31 18 -13 23 23 6 48 -11 62 -76 62 l-48 0 0 203 c0 111 -2 230 -5
265 -3 35 -1 93 6 129 12 71 11 76 -9 64z"/>
<path d="M7186 3874 c-7 -18 0 -34 15 -34 5 0 9 11 9 25 0 28 -15 34 -24 9z"/>
<path d="M7800 3837 c0 -23 4 -36 10 -32 13 8 13 35 0 55 -7 11 -10 5 -10 -23z"/>
<path d="M12750 3851 c0 -11 4 -22 9 -25 12 -8 34 21 26 34 -11 17 -35 11 -35
-9z"/>
<path d="M9260 3810 c-6 -12 -9 -32 -6 -43 14 -56 17 -251 5 -319 -21 -123
-46 -138 -231 -138 -73 0 -171 5 -218 12 -137 19 -175 17 -204 -11 -28 -26
-20 -43 15 -34 32 9 69 -6 69 -27 0 -10 -4 -22 -10 -25 -5 -3 -10 -11 -10 -17
0 -6 12 -1 26 13 14 13 20 25 15 27 -21 7 -11 19 29 37 34 15 47 16 94 7 39
-8 89 -8 179 0 99 9 134 9 171 -2 25 -7 46 -17 46 -21 0 -14 39 -49 54 -49 8
0 20 16 26 35 8 23 18 35 31 36 10 1 24 3 29 4 6 1 15 3 20 4 6 0 10 7 10 15
0 8 -19 19 -47 26 -26 6 -53 16 -60 22 -17 14 -18 380 -1 407 9 14 8 23 -5 41
l-15 22 -12 -22z"/>
<path d="M10400 3810 c0 -19 3 -21 12 -12 9 9 9 15 0 24 -9 9 -12 7 -12 -12z"/>
<path d="M11040 3820 c0 -5 11 -10 25 -10 14 0 25 5 25 10 0 6 -11 10 -25 10
-14 0 -25 -4 -25 -10z"/>
<path d="M9652 3785 c-7 -8 -9 -15 -5 -15 4 0 18 -3 31 -6 18 -5 22 -2 22 15
0 25 -28 28 -48 6z"/>
<path d="M8640 3776 c0 -7 7 -19 15 -26 19 -16 41 1 32 24 -8 20 -47 21 -47 2z"/>
<path d="M12780 3749 c0 -5 5 -7 10 -4 6 3 10 8 10 11 0 2 -4 4 -10 4 -5 0
-10 -5 -10 -11z"/>
<path d="M11293 3705 c0 -27 2 -38 4 -22 2 15 2 37 0 50 -2 12 -4 0 -4 -28z"/>
<path d="M7180 3731 c0 -5 6 -14 14 -20 10 -9 15 -8 19 3 3 8 3 17 0 20 -9 9
-33 7 -33 -3z"/>
<path d="M7556 3731 c-7 -11 22 -23 35 -15 5 3 9 9 9 15 0 12 -37 12 -44 0z"/>
<path d="M6550 3716 c0 -9 5 -16 10 -16 6 0 10 4 10 9 0 6 -4 13 -10 16 -5 3
-10 -1 -10 -9z"/>
<path d="M2200 3681 c0 -24 -9 -51 -24 -74 -21 -30 -22 -38 -10 -48 8 -6 14
-23 14 -38 0 -15 6 -33 13 -39 7 -8 14 -50 17 -99 4 -62 9 -88 19 -91 12 -4
13 12 8 97 -3 56 -4 115 0 131 6 33 52 65 108 76 19 3 37 10 40 14 9 15 -12
20 -46 10 -28 -8 -36 -6 -55 11 -12 11 -30 19 -40 17 -15 -2 -20 4 -22 35 -4
49 -22 48 -22 -2z"/>
<path d="M13360 3701 c0 -12 5 -21 10 -21 6 0 10 6 10 14 0 8 -4 18 -10 21 -5
3 -10 -3 -10 -14z"/>
<path d="M8096 3678 c10 -40 10 -70 -4 -218 -11 -119 -18 -150 -33 -150 -15 0
-10 -27 6 -34 8 -3 15 -16 15 -29 0 -13 9 -32 20 -42 20 -18 20 -17 20 23 0
28 5 44 16 50 15 8 14 12 -6 39 -25 35 -27 63 -16 225 9 118 4 168 -15 168 -7
0 -8 -11 -3 -32z"/>
<path d="M4411 3694 c-1 -7 -13 -19 -27 -29 -22 -14 -31 -15 -55 -5 -34 14
-102 5 -96 -13 2 -7 14 -14 28 -16 13 -1 27 -8 31 -14 5 -8 16 -8 42 1 50 18
76 3 76 -44 0 -21 4 -33 10 -29 12 7 12 112 0 140 -5 11 -9 15 -9 9z"/>
<path d="M12775 3689 c-4 -5 2 -12 12 -16 10 -3 21 -8 25 -10 4 -2 5 3 2 11
-7 18 -31 28 -39 15z"/>
<path d="M12980 3674 c0 -12 6 -15 23 -9 12 4 30 7 40 8 35 2 16 17 -23 17
-30 0 -40 -4 -40 -16z"/>
<path d="M3234 3639 c-11 -19 15 -33 58 -30 56 3 58 8 15 26 -43 18 -63 19
-73 4z"/>
<path d="M3435 3640 c-16 -6 -37 -7 -46 -5 -9 3 -22 -2 -29 -10 -12 -14 -3
-15 81 -13 76 2 94 6 94 18 0 18 -55 23 -100 10z"/>
<path d="M2830 3610 c0 -15 5 -20 18 -18 9 2 17 10 17 18 0 8 -8 16 -17 18
-13 2 -18 -3 -18 -18z"/>
<path d="M11293 3520 c0 -36 2 -50 4 -32 2 17 2 47 0 65 -2 17 -4 3 -4 -33z"/>
<path d="M12822 3569 c2 -6 8 -10 13 -10 5 0 11 4 13 10 2 6 -4 11 -13 11 -9
0 -15 -5 -13 -11z"/>
<path d="M7801 3525 c1 -40 1 -40 11 -12 7 21 7 32 -1 40 -8 8 -11 0 -10 -28z"/>
<path d="M1855 3460 c-10 -11 -26 -20 -35 -20 -15 0 -29 -9 -77 -50 -17 -14
-17 -40 0 -40 7 0 21 6 32 13 26 18 65 28 65 16 0 -5 -10 -9 -23 -9 -44 0 -65
-53 -32 -80 13 -10 19 -10 33 4 10 9 23 16 29 16 17 0 37 58 25 73 -8 9 -6 22
5 45 20 41 5 62 -22 32z"/>
<path d="M7797 3405 c-13 -98 -10 -97 -300 -91 -288 5 -278 4 -294 17 -9 8
-23 3 -52 -18 -48 -33 -50 -40 -15 -49 14 -4 30 -17 34 -30 12 -30 38 -31 42
-1 2 13 11 23 23 25 11 1 36 5 55 8 19 4 103 8 185 10 171 5 274 -8 301 -37 9
-10 23 -19 31 -19 7 0 13 -7 13 -15 0 -25 13 -17 43 25 23 32 35 40 73 46 42
6 44 7 22 18 -13 7 -44 18 -70 25 -60 17 -71 31 -78 95 l-6 51 -7 -60z"/>
<path d="M11281 3393 c-18 -50 -18 -91 0 -131 21 -48 43 -52 36 -6 -4 20 -2
45 4 56 8 14 7 25 -4 42 -9 13 -17 35 -19 50 -3 27 -3 26 -17 -11z"/>
<path d="M10653 3356 c-23 -11 -43 -23 -43 -26 0 -3 21 -23 46 -44 43 -36 46
-37 51 -17 6 24 33 29 33 6 0 -8 7 -15 15 -15 8 0 15 7 15 15 0 8 12 17 28 21
15 3 37 11 50 17 l23 11 -23 12 c-13 6 -45 15 -73 19 -27 4 -57 11 -65 15 -9
5 -31 0 -57 -14z"/>
<path d="M9846 3338 l-29 -11 24 -13 c25 -14 139 -19 139 -6 -1 18 -17 29 -45
29 -16 0 -37 2 -45 5 -8 4 -28 2 -44 -4z"/>
<path d="M10400 3330 c0 -5 9 -10 21 -10 11 0 17 5 14 10 -3 6 -13 10 -21 10
-8 0 -14 -4 -14 -10z"/>
<path d="M9588 3323 c6 -2 18 -2 25 0 6 3 1 5 -13 5 -14 0 -19 -2 -12 -5z"/>
<path d="M4303 3275 c0 -27 2 -38 4 -22 2 15 2 37 0 50 -2 12 -4 0 -4 -28z"/>
<path d="M8176 3295 c-4 -11 2 -15 25 -15 27 0 29 2 15 15 -8 8 -19 15 -24 15
-6 0 -12 -7 -16 -15z"/>
<path d="M1300 3290 c0 -5 5 -10 10 -10 6 0 10 5 10 10 0 6 -4 10 -10 10 -5 0
-10 -4 -10 -10z"/>
<path d="M1846 3275 c-3 -8 -1 -15 4 -15 6 0 10 7 10 15 0 8 -2 15 -4 15 -2 0
-6 -7 -10 -15z"/>
<path d="M5368 3250 c-3 -41 -5 -45 -27 -42 -15 1 -32 -7 -47 -23 -23 -25 -24
-25 -199 -25 -147 0 -180 3 -201 17 -14 9 -41 16 -60 15 -19 -1 -34 3 -34 10
0 6 -10 -1 -23 -15 -18 -22 -36 -28 -101 -38 -44 -6 -94 -8 -111 -5 -26 5 -92
-8 -75 -15 3 -1 62 -2 132 -3 116 -2 130 -4 151 -24 13 -12 30 -22 39 -22 9 0
18 -5 20 -12 3 -8 17 0 39 20 19 17 40 32 47 32 7 0 15 7 19 16 5 15 24 16
155 11 92 -4 155 -10 164 -18 10 -8 14 -8 14 0 0 17 14 13 38 -9 12 -12 30
-20 40 -18 13 2 18 -6 23 -37 5 -35 6 -36 8 -9 1 31 27 64 49 64 15 0 52 37
45 44 -4 3 -14 6 -23 6 -26 0 -69 47 -63 70 3 10 0 27 -5 37 -9 15 -11 10 -14
-27z"/>
<path d="M2252 3255 c0 -16 2 -22 5 -12 2 9 2 23 0 30 -3 6 -5 -1 -5 -18z"/>
<path d="M13876 3261 c-17 -19 -17 -20 3 -31 17 -8 21 -21 23 -63 l1 -52 7 65
c9 97 0 119 -34 81z"/>
<path d="M1643 3250 c-11 -16 -10 -18 2 -14 8 4 15 12 15 20 0 19 -3 18 -17
-6z"/>
<path d="M6502 3258 c6 -16 108 -32 121 -19 19 19 -6 31 -64 31 -44 0 -60 -3
-57 -12z"/>
<path d="M13796 3254 c-19 -18 -20 -30 -5 -39 6 -4 14 -17 19 -29 8 -19 9 -18
9 10 1 16 5 34 10 40 6 5 4 14 -4 21 -11 10 -17 10 -29 -3z"/>
<path d="M14201 3256 c-8 -10 -9 -16 -1 -21 5 -3 11 -27 12 -53 l1 -47 4 45
c3 24 9 48 15 51 8 5 6 12 -4 23 -14 13 -18 13 -27 2z"/>
<path d="M2211 3207 c-1 -42 -34 -97 -57 -97 -17 0 -18 -8 -2 -42 11 -22 17
-25 44 -21 24 4 35 0 46 -16 14 -20 16 -20 30 -4 8 10 18 26 21 36 5 12 17 17
47 17 25 0 39 4 35 10 -13 22 -101 74 -125 75 -21 0 -26 6 -31 40 l-6 40 -2
-38z"/>
<path d="M9885 3227 c-4 -10 -5 -21 -1 -24 10 -10 18 4 13 24 -4 17 -4 17 -12
0z"/>
<path d="M10400 3215 c0 -9 5 -15 11 -13 6 2 11 8 11 13 0 5 -5 11 -11 13 -6
2 -11 -4 -11 -13z"/>
<path d="M5823 3182 c-20 -28 -21 -29 -2 -40 10 -7 19 -19 19 -27 0 -8 9 -15
20 -15 11 0 20 -5 20 -11 0 -6 12 -1 26 10 30 24 56 26 84 9 17 -11 22 -10 29
1 16 25 -10 51 -51 51 -28 0 -44 7 -60 25 -28 33 -59 32 -85 -3z"/>
<path d="M3235 3160 c-16 -16 -35 -30 -42 -30 -27 0 -12 -19 32 -41 25 -12 54
-31 64 -41 19 -17 20 -17 23 5 2 13 10 22 21 22 10 0 21 5 25 11 4 7 16 13 27
15 11 3 21 12 23 21 4 21 -55 48 -103 48 -19 0 -35 5 -37 10 -2 6 -16 -3 -33
-20z"/>
<path d="M4242 3168 c-20 -21 -32 -22 -194 -25 -166 -3 -228 5 -228 28 0 18
-97 10 -123 -11 -14 -11 -32 -20 -40 -20 -9 0 -18 -4 -21 -8 -9 -16 10 -30 44
-34 28 -2 36 -8 38 -26 2 -14 9 -22 17 -19 17 7 35 -12 28 -29 -3 -8 0 -14 6
-14 6 0 11 9 11 20 0 13 7 20 20 20 13 0 20 7 20 18 0 11 8 26 18 35 16 14 44
17 180 17 96 0 163 -4 167 -10 3 -5 19 -10 36 -10 16 0 29 -4 29 -9 0 -5 8
-12 19 -16 10 -3 23 -15 29 -28 10 -21 11 -21 11 -1 1 13 18 32 51 53 53 34
61 48 33 57 -10 4 -32 12 -50 20 -44 20 -75 17 -101 -8z"/>
<path d="M2717 3164 c-4 -4 -7 -20 -7 -36 0 -36 -18 -37 -22 0 -5 41 -31 34
-39 -11 -7 -45 7 -69 40 -65 19 2 26 -3 31 -22 7 -23 7 -22 11 10 3 30 8 35
32 38 18 2 33 -3 41 -14 12 -15 13 -15 19 0 4 9 18 16 35 16 15 0 38 9 51 21
17 16 28 19 49 13 43 -13 121 -11 127 4 3 9 -15 12 -73 12 -52 1 -83 5 -96 15
-22 17 -132 20 -155 6 -10 -7 -18 -5 -26 5 -6 8 -14 12 -18 8z"/>
<path d="M12743 3159 c-24 -9 -32 -39 -10 -39 11 0 42 39 35 45 -2 1 -13 -1
-25 -6z"/>
<path d="M1445 3144 c-36 -16 -101 -18 -110 -4 -11 17 -24 11 -61 -25 -19 -19
-45 -37 -59 -41 -18 -4 -26 -15 -31 -40 -3 -19 -4 -38 0 -41 3 -4 6 3 6 15 0
20 5 22 58 22 51 0 60 -3 70 -22 l11 -23 0 23 c1 13 7 22 17 22 8 0 33 18 55
40 22 22 44 40 49 40 9 0 34 39 28 44 -2 2 -16 -3 -33 -10z"/>
<path d="M1711 3121 c-30 -33 -30 -35 -11 -48 10 -7 26 -20 34 -28 8 -8 21
-15 29 -15 8 0 17 -9 20 -21 5 -19 10 -17 48 25 l43 46 82 0 c53 0 92 5 110
15 28 14 24 15 -66 15 -69 0 -103 5 -125 17 -16 9 -53 19 -82 23 -49 6 -53 5
-82 -29z"/>
<path d="M5518 3153 c6 -2 18 -2 25 0 6 3 1 5 -13 5 -14 0 -19 -2 -12 -5z"/>
<path d="M2070 3029 c0 -18 2 -19 15 -9 8 7 15 16 15 21 0 5 -7 9 -15 9 -9 0
-15 -9 -15 -21z"/>
<path d="M1980 3005 c0 -8 4 -15 9 -15 5 0 14 7 21 15 10 13 9 15 -9 15 -12 0
-21 -6 -21 -15z"/>
<path d="M1806 2973 c-13 -13 -5 -33 14 -33 11 0 20 3 20 6 0 11 -28 33 -34
27z"/>
<path d="M1895 2970 c3 -5 8 -10 11 -10 2 0 4 5 4 10 0 6 -5 10 -11 10 -5 0
-7 -4 -4 -10z"/>
<path d="M1650 2904 c0 -8 5 -12 10 -9 6 4 8 11 5 16 -9 14 -15 11 -15 -7z"/>
</g>
</svg>
