<?xml version="1.0" standalone="no"?>
<!DOCTYPE svg PUBLIC "-//W3C//DTD SVG 20010904//EN"
 "http://www.w3.org/TR/2001/REC-SVG-20010904/DTD/svg10.dtd">
<svg version="1.0" xmlns="http://www.w3.org/2000/svg"
 width="2000.000000pt" height="1150.000000pt" viewBox="0 0 2000.000000 1150.000000"
 preserveAspectRatio="xMidYMid meet">

<g transform="translate(0.000000,1150.000000) scale(0.100000,-0.100000)"
fill="#000000" stroke="none">
<path d="M11650 8913 c-14 -7 -37 -13 -52 -13 -15 0 -36 -9 -47 -21 -15 -16
-26 -19 -49 -14 -21 4 -33 2 -39 -8 -4 -8 -39 -22 -78 -31 -86 -20 -160 -41
-242 -67 -34 -11 -90 -26 -125 -34 -105 -23 -191 -45 -223 -56 -16 -6 -50 -15
-75 -20 -51 -9 -85 -17 -225 -54 -98 -26 -139 -35 -240 -53 -27 -5 -70 -17
-95 -26 -25 -10 -58 -20 -75 -23 -16 -2 -39 -8 -50 -12 -36 -15 -91 -31 -103
-31 -7 0 -35 -11 -64 -25 -28 -14 -60 -25 -70 -25 -10 0 -26 -4 -36 -9 -23
-12 -99 -31 -141 -36 -19 -3 -39 -9 -45 -15 -5 -5 -27 -10 -47 -10 -24 0 -39
-5 -43 -15 -3 -9 -18 -15 -40 -15 -19 0 -38 -4 -41 -10 -3 -5 -19 -10 -35 -10
-22 0 -28 -4 -24 -15 5 -11 -1 -15 -19 -15 -13 0 -30 -7 -37 -15 -7 -8 -23
-15 -36 -15 -12 0 -25 -4 -28 -9 -3 -5 -23 -11 -43 -14 -39 -5 -168 -48 -180
-60 -3 -4 -20 -7 -36 -7 -16 0 -61 -11 -100 -24 -40 -13 -92 -30 -117 -36 -25
-7 -58 -18 -75 -25 -16 -7 -57 -18 -90 -25 -33 -7 -64 -15 -70 -19 -5 -4 -37
-13 -70 -21 -33 -7 -73 -18 -90 -25 -52 -22 -100 -35 -128 -35 -14 0 -29 -4
-32 -10 -3 -5 -15 -10 -26 -10 -10 0 -27 -4 -37 -9 -25 -13 -121 -41 -143 -41
-10 0 -20 -4 -23 -9 -6 -9 -51 -21 -99 -27 -15 -2 -41 -11 -57 -19 -16 -8 -37
-15 -48 -15 -10 0 -22 -3 -25 -6 -6 -6 -105 -34 -262 -75 -22 -6 -49 -14 -60
-18 -31 -13 -87 -29 -122 -36 -18 -4 -35 -11 -38 -16 -4 -5 -17 -9 -30 -9 -13
0 -27 -4 -30 -10 -3 -5 -19 -10 -35 -10 -16 0 -32 -4 -35 -10 -3 -5 -19 -10
-35 -10 -16 0 -39 -4 -52 -9 -13 -5 -50 -17 -83 -26 -33 -9 -98 -30 -145 -46
-47 -15 -103 -32 -125 -38 -55 -13 -193 -50 -235 -63 -19 -6 -55 -12 -80 -15
-25 -3 -49 -9 -55 -14 -5 -5 -24 -9 -42 -9 -18 0 -33 -4 -33 -10 0 -5 -12 -10
-27 -10 -15 0 -47 -9 -72 -21 -25 -11 -55 -24 -66 -29 -11 -4 -31 -12 -45 -18
-14 -6 -34 -13 -45 -15 -11 -3 -46 -15 -78 -27 -69 -26 -87 -18 -67 29 13 33
7 53 -14 45 -16 -6 -31 -118 -30 -234 1 -47 4 -256 9 -466 4 -209 5 -392 2
-405 -8 -31 -77 -80 -137 -98 -25 -7 -58 -17 -74 -22 -16 -5 -46 -9 -67 -9
-21 0 -40 -4 -44 -9 -3 -6 -27 -13 -53 -16 -26 -3 -55 -10 -64 -16 -10 -5 -38
-9 -62 -9 -25 0 -48 -4 -51 -10 -3 -5 -28 -10 -55 -10 -27 0 -52 -4 -55 -10
-3 -5 -28 -10 -54 -10 -26 0 -52 -5 -58 -11 -6 -6 -41 -14 -77 -16 -37 -3 -69
-10 -72 -14 -3 -5 -27 -9 -54 -9 -27 0 -52 -4 -55 -10 -3 -5 -28 -10 -55 -10
-27 0 -51 -4 -55 -10 -3 -5 -33 -12 -66 -16 -32 -4 -62 -11 -65 -15 -3 -5 -32
-9 -64 -9 -32 0 -62 -4 -65 -10 -3 -5 -28 -10 -55 -10 -27 0 -52 -4 -55 -10
-3 -5 -25 -10 -48 -10 -23 0 -64 -7 -91 -15 -27 -8 -82 -15 -122 -15 -40 0
-75 -4 -78 -9 -3 -5 -24 -11 -47 -13 -35 -3 -43 0 -52 19 -11 24 -27 29 -43
14 -5 -5 -27 -11 -49 -13 -37 -3 -40 -5 -37 -29 3 -35 -34 -59 -90 -59 -24 0
-59 -4 -78 -10 -58 -16 -143 -17 -184 -3 -21 7 -64 13 -96 13 -31 0 -59 3 -63
6 -3 3 -36 7 -74 9 -92 5 -167 16 -173 26 -3 4 -23 9 -44 11 -20 1 -39 5 -42
9 -2 4 -28 10 -57 14 -28 4 -56 11 -62 15 -9 7 -34 12 -122 26 -21 3 -47 9
-58 14 -11 5 -42 14 -70 20 -100 22 -120 28 -147 38 -16 7 -28 16 -28 22 0 5
-22 10 -49 10 -30 0 -53 5 -60 14 -8 9 -38 16 -79 19 -86 6 -183 32 -194 52
-5 8 -18 15 -28 15 -10 0 -31 5 -44 12 -21 9 -29 8 -43 -5 -21 -18 -110 -36
-243 -47 -52 -5 -126 -13 -165 -18 -133 -18 -320 -34 -487 -41 -141 -5 -171
-9 -185 -24 -16 -16 -16 -19 -3 -28 8 -5 29 -7 47 -4 28 5 33 2 38 -17 3 -13
7 -158 8 -323 l2 -300 -48 -3 c-39 -3 -48 -6 -45 -20 2 -11 16 -19 43 -22 30
-4 43 -11 52 -31 10 -20 13 -196 13 -765 1 -430 5 -742 10 -749 5 -6 11 -80
14 -165 11 -309 21 -480 29 -480 4 0 14 0 22 0 8 0 15 9 15 21 0 11 4 18 10
14 5 -3 7 -12 4 -19 -6 -14 22 -30 37 -20 5 3 9 14 9 24 0 38 51 45 77 11 11
-14 12 -13 13 7 l0 22 183 0 c171 0 185 -1 202 -20 22 -25 34 -25 51 -2 11 15
34 17 179 20 162 4 167 3 172 -17 3 -12 12 -21 20 -21 12 0 13 3 4 13 -18 22
-1 27 38 11 22 -9 46 -12 61 -8 14 4 30 8 35 8 6 1 19 6 31 13 21 12 299 21
311 10 3 -4 14 -7 24 -7 9 0 31 -13 48 -29 31 -29 31 -29 31 -6 0 41 11 55 41
55 17 0 32 6 35 15 4 11 10 12 18 6 7 -6 108 -13 224 -17 117 -4 215 -11 218
-16 3 -5 12 -3 21 3 23 19 414 19 437 0 14 -12 31 -12 104 -2 48 6 106 16 130
21 23 6 84 10 136 10 79 0 96 -3 116 -20 27 -24 56 -26 64 -5 4 12 11 13 32 5
20 -8 36 -6 71 10 40 17 67 20 211 20 157 0 167 -1 189 -22 20 -19 27 -20 43
-10 28 17 35 15 48 -13 15 -34 35 -32 49 5 l11 30 211 0 c179 0 213 -2 217
-15 8 -19 62 -20 83 -1 19 16 477 32 500 17 9 -6 23 -5 38 2 18 8 33 7 59 -2
26 -10 39 -10 47 -2 7 7 59 11 138 11 76 0 130 4 134 10 4 6 11 7 17 4 16 -10
97 -11 163 -3 34 5 64 4 70 -1 10 -8 71 -8 370 1 28 1 107 -1 177 -5 84 -5
128 -4 133 3 8 14 853 15 875 1 9 -5 19 -5 25 0 6 5 61 7 121 4 60 -2 312 -8
559 -12 356 -6 457 -5 483 5 18 7 72 15 120 19 48 3 90 8 93 9 3 2 300 5 660
6 360 1 659 6 665 11 16 12 1297 13 1320 0 12 -6 26 -7 35 -1 9 5 61 5 120 1
67 -5 157 -4 254 5 202 17 314 18 347 2 20 -8 30 -22 34 -47 l7 -36 18 22 c9
12 24 22 33 22 11 0 16 9 16 29 0 17 6 31 16 35 9 3 94 6 189 6 l174 0 30 -32
c16 -17 32 -44 35 -60 4 -23 11 -28 33 -28 43 0 55 13 60 64 4 35 10 46 23 46
10 0 21 -10 25 -22 l7 -23 7 25 c7 25 7 25 144 28 80 1 137 7 137 12 0 6 24
10 54 10 45 0 58 -4 71 -22 13 -19 18 -21 35 -10 30 19 50 14 60 -14 11 -28
30 -24 30 6 0 21 33 31 90 29 89 -3 159 -1 203 6 l48 8 -2 119 c-2 65 -6 121
-11 124 -12 8 -10 741 2 749 6 3 10 26 10 51 0 39 3 46 28 55 17 7 145 9 362
8 184 -2 918 1 1630 6 1079 9 1304 8 1350 -3 41 -10 63 -11 90 -3 19 6 58 12
85 14 37 1 50 6 50 17 0 11 -13 16 -50 17 -27 2 -70 6 -94 9 -111 15 8 22 411
25 241 2 438 7 438 12 0 4 -17 7 -39 7 -22 0 -44 6 -51 15 -7 8 -20 15 -28 15
-13 0 -13 3 -4 12 10 10 19 10 42 -4 22 -12 43 -15 90 -11 33 3 63 10 66 14 3
5 24 9 47 9 31 0 38 3 27 10 -8 5 -26 10 -39 10 -52 0 -57 15 -48 172 4 79 11
181 16 228 10 99 8 911 -3 1111 -7 120 -6 137 8 142 9 4 16 13 16 22 0 18 -12
19 -27 4 -21 -21 -501 5 -525 29 -7 7 -40 12 -84 12 -40 0 -76 5 -79 10 -3 6
-44 10 -90 10 -46 0 -87 5 -90 10 -3 6 -39 10 -80 10 -41 0 -77 5 -80 10 -3 6
-37 10 -74 10 -44 0 -74 5 -87 15 -13 10 -45 14 -101 15 -49 0 -83 4 -83 10 0
6 -31 10 -74 10 -41 0 -78 5 -81 10 -3 6 -39 10 -79 10 -39 0 -76 4 -82 10 -5
5 -49 13 -97 16 -48 4 -90 11 -93 16 -3 4 -39 8 -80 8 -41 0 -74 4 -74 9 0 5
-33 12 -72 14 -40 3 -113 12 -163 21 -49 9 -109 19 -133 23 -23 3 -45 10 -48
14 -3 5 -34 9 -69 9 -35 0 -67 5 -70 10 -3 6 -22 10 -41 10 -20 0 -44 4 -54
10 -10 5 -42 13 -72 16 -29 3 -57 9 -63 12 -11 7 -101 21 -190 28 -33 3 -64
10 -70 15 -5 5 -31 9 -57 9 -26 0 -48 5 -48 10 0 6 -23 10 -52 9 -48 -1 -50
-2 -20 -9 61 -14 48 -22 -28 -16 -157 11 -216 17 -250 26 -19 6 -65 10 -102
10 -37 0 -70 5 -73 10 -3 6 -39 10 -80 10 -41 0 -77 5 -80 10 -3 6 -44 10 -90
10 -46 0 -86 4 -89 9 -3 5 -39 12 -78 16 -40 4 -78 11 -83 16 -6 4 -44 9 -85
11 l-75 3 -3 158 c-2 105 2 184 12 235 8 44 11 96 7 122 -5 38 -10 45 -31 48
-31 4 -189 51 -212 63 -10 5 -24 9 -33 9 -8 0 -29 6 -47 14 -18 8 -59 20 -91
27 -32 7 -60 16 -63 21 -3 4 -18 8 -33 8 -15 0 -31 4 -37 9 -12 13 -124 51
-147 51 -10 0 -31 6 -45 14 -50 27 -92 37 -152 38 -14 0 -31 5 -38 10 -23 20
-105 58 -123 58 -10 0 -32 8 -51 17 -58 29 -68 33 -78 33 -9 0 -65 23 -127 52
-12 6 -32 8 -44 5 -14 -4 -30 0 -41 10 -9 8 -26 13 -37 10 -12 -3 -22 1 -25 9
-3 8 -19 14 -35 14 -16 0 -33 5 -36 10 -3 6 -22 10 -41 10 -19 0 -42 4 -52 9
-29 14 -87 31 -110 31 -11 0 -24 5 -27 10 -3 6 -17 10 -30 10 -13 0 -26 4 -29
9 -4 5 -25 12 -48 16 -23 4 -49 11 -58 15 -28 14 -86 30 -108 30 -12 0 -22 4
-22 10 0 5 -16 12 -35 16 -19 3 -38 10 -41 15 -3 5 -16 9 -29 9 -13 0 -27 5
-30 10 -3 6 -19 10 -34 10 -16 0 -42 7 -57 15 -16 8 -39 15 -51 15 -12 0 -25
5 -28 10 -3 6 -17 10 -29 10 -13 0 -29 7 -36 15 -7 8 -16 12 -21 9 -5 -3 -14
-2 -20 2 -8 5 -8 9 1 14 13 8 11 9 -113 31 -37 6 -75 18 -83 26 -12 12 -14 72
-14 363 0 392 -5 366 76 372 27 3 40 9 42 21 6 28 -29 34 -50 8 -23 -29 -46
-21 -50 16 -3 27 -4 28 -28 16z m-3704 -2287 c0 0 6 -34 12 -74 15 -93 15
-354 0 -549 l-12 -153 -44 0 -44 0 6 48 c10 76 25 309 21 329 -2 10 -6 104 -9
210 -6 177 -5 192 11 196 14 4 56 -1 59 -7z m854 -20 l85 -12 -1 -44 c-1 -25
-5 -117 -9 -205 -5 -102 -3 -216 4 -314 9 -119 9 -156 0 -161 -14 -9 -198 -24
-205 -17 -3 3 -5 103 -4 224 0 133 -5 275 -15 364 -8 81 -12 154 -9 163 7 19
33 19 154 2z m-1807 -11 c17 -12 19 -42 27 -376 7 -268 6 -365 -2 -370 -11 -7
-205 -5 -213 2 -2 2 1 38 5 79 13 107 12 311 -2 474 -6 78 -12 152 -12 166 -1
24 2 25 79 31 44 3 85 6 90 7 6 1 18 -5 28 -13z m648 -51 c13 -57 11 -502 -3
-606 l-12 -88 -165 2 -166 3 -7 355 c-5 270 -4 356 5 362 7 4 55 8 107 9 52 1
122 4 155 8 33 4 64 4 68 0 5 -4 13 -24 18 -45z m1497 -30 c2 -43 0 -90 -4
-104 -6 -23 -7 -24 -14 -5 -10 29 -21 180 -13 188 18 19 28 -6 31 -79z m-2011
24 c-2 -13 -4 -5 -4 17 -1 22 1 32 4 23 2 -10 2 -28 0 -40z m2267 30 c3 -13 8
-149 11 -303 3 -154 7 -300 8 -325 l2 -45 -67 -3 c-56 -2 -68 0 -76 15 -5 10
-12 168 -15 351 l-5 332 69 0 c63 0 69 -2 73 -22z m5231 -183 c28 -3 70 -11
93 -17 l44 -11 -9 -116 c-11 -153 -5 -612 8 -628 15 -17 -37 -25 -155 -21
l-100 3 -11 45 c-8 32 -8 87 -2 185 6 91 6 213 -1 350 -12 231 -12 229 48 220
19 -2 58 -7 85 -10z m444 -66 c17 -6 30 -18 30 -27 0 -9 3 -53 7 -98 7 -79 6
-81 -17 -87 -13 -4 -51 -7 -85 -7 -52 0 -64 4 -85 26 -21 23 -24 36 -28 121
l-3 96 76 -7 c41 -4 89 -11 105 -17z m-259 -108 c0 -91 -3 -110 -16 -115 -15
-6 -16 4 -11 91 4 89 12 133 23 133 2 0 4 -49 4 -109z m-5763 -113 c-1 -40 -3
-8 -3 72 0 80 2 112 3 73 2 -40 2 -106 0 -145z m5412 -136 c-1 -150 -5 -274
-9 -277 -17 -10 -27 425 -13 556 13 126 23 5 22 -279z m795 332 c12 -5 16 -21
16 -65 0 -33 -4 -59 -10 -59 -5 0 -10 6 -10 14 0 8 -9 18 -20 21 -15 5 -20 15
-20 44 0 49 9 58 44 45z m355 -43 c111 -14 116 -20 102 -107 -14 -85 -19 -769
-8 -944 7 -99 6 -129 -5 -143 -11 -14 -36 -18 -153 -24 -127 -5 -142 -4 -159
12 -11 11 -15 26 -12 40 3 12 12 109 21 216 15 199 18 503 6 803 l-6 169 65
-6 c36 -4 103 -11 149 -16z m370 -53 c42 -4 94 -11 115 -14 l39 -7 -8 -146
c-9 -183 -7 -497 4 -576 6 -42 5 -62 -3 -67 -15 -11 -238 -10 -254 1 -12 7
-12 39 -2 192 11 177 6 467 -10 572 -6 38 -4 49 9 56 8 5 20 7 25 4 5 -4 43
-10 85 -15z m604 -115 c100 -33 141 -51 149 -66 13 -25 3 -188 -13 -197 -12
-8 -331 -22 -337 -15 -7 7 -13 287 -7 312 7 28 23 26 208 -34z m-7443 -72 c0
-66 -4 -122 -8 -125 -4 -2 -14 -1 -21 4 -11 6 -12 22 -7 67 4 32 9 84 13 116
10 97 23 63 23 -62z m6695 -96 c-13 -294 -22 -309 -22 -40 -1 241 0 257 14
215 11 -35 13 -75 8 -175z m342 -87 c-3 -161 -10 -304 -16 -318 -11 -28 -14
30 -11 220 5 305 11 390 28 390 3 0 2 -132 -1 -292z m851 203 c-4 -36 -29 -38
-104 -6 -98 42 -86 56 32 41 73 -9 75 -10 72 -35z m-2218 -82 c0 -127 -19
-278 -31 -239 -9 33 -11 155 -3 268 5 70 10 89 20 85 11 -4 14 -32 14 -114z
m284 105 c14 -5 16 -27 16 -140 0 -128 -1 -134 -20 -134 -27 0 -34 -22 -21
-62 6 -21 7 -47 2 -70 -6 -26 -5 -49 5 -75 7 -21 13 -30 14 -20 0 9 5 17 10
17 6 0 10 -97 10 -272 0 -180 -4 -268 -10 -258 -5 8 -10 118 -11 250 -1 134
-4 216 -8 190 -10 -61 -7 -483 3 -596 9 -91 9 -91 -15 -97 -42 -12 -116 -8
-128 7 -8 10 -8 58 0 187 7 115 9 327 5 627 l-7 452 70 0 c38 0 76 -3 85 -6z
m1846 -77 c19 -3 48 -10 64 -16 l29 -12 -6 -132 c-23 -540 -29 -668 -33 -713
l-5 -51 -66 -6 c-36 -4 -70 -4 -76 0 -6 4 -7 54 -2 139 3 74 4 134 1 134 -3 0
-10 -15 -15 -32 l-9 -33 -1 37 c-1 26 6 45 24 64 21 23 25 36 24 83 -1 42 -3
49 -8 27 -3 -17 -10 -29 -16 -28 -14 2 -29 151 -21 197 6 32 9 35 23 24 11
-10 14 -26 10 -64 -2 -27 -1 -59 4 -70 5 -12 8 75 7 210 -1 127 1 235 5 242 4
7 13 10 20 8 7 -3 28 -6 47 -8z m830 -31 c0 -3 -4 -8 -10 -11 -5 -3 -10 -1
-10 4 0 6 5 11 10 11 6 0 10 -2 10 -4z m-2549 -609 c-11 -39 -14 450 -3 528 4
30 8 -61 10 -223 1 -150 -2 -287 -7 -305z m-8094 521 c-3 -8 -6 -5 -6 6 -1 11
2 17 5 13 3 -3 4 -12 1 -19z m10633 -39 c0 -60 -13 -73 -23 -23 -4 25 9 84 19
84 2 0 4 -27 4 -61z m-303 -138 c-4 -104 -10 -196 -13 -205 -3 -9 -17 -16 -30
-16 l-24 0 0 170 c0 193 11 239 59 240 12 0 13 -30 8 -189z m162 -7 c0 -191
-5 -224 -39 -224 -46 0 -46 0 -34 178 14 212 18 232 50 232 l24 0 -1 -186z
m321 116 c0 -33 -4 -60 -10 -60 -6 0 -10 27 -10 60 0 33 4 60 10 60 6 0 10
-27 10 -60z m140 2 c0 -60 -12 -84 -36 -75 -10 3 -14 23 -14 62 0 62 4 71 32
71 15 0 18 -8 18 -58z m313 3 c-1 -27 -7 -106 -12 -175 -22 -254 -28 -399 -23
-582 4 -185 4 -188 -17 -188 -14 0 -23 9 -28 28 -5 15 -8 196 -8 402 0 360 1
379 24 473 21 88 26 98 45 95 18 -3 21 -9 19 -53z m-1774 -32 l92 -6 -7 -341
c-4 -188 -7 -399 -8 -471 l-1 -130 -115 -3 c-63 -2 -138 0 -166 3 l-51 6 3 52
c1 29 8 135 15 237 9 131 9 207 2 260 -5 41 -8 146 -5 232 l4 157 47 4 c25 2
58 4 72 5 14 1 67 -1 118 -5z m-10970 -110 c0 -54 -4 -118 -9 -143 -11 -59
-27 -146 -47 -245 -15 -80 -23 -146 -42 -350 -26 -275 -33 -451 -27 -701 7
-263 9 -310 26 -463 5 -45 9 -86 8 -90 -1 -3 4 -18 9 -32 6 -14 16 -61 23
-105 6 -43 18 -110 26 -149 23 -106 38 -215 31 -221 -3 -4 -96 -9 -207 -12
l-200 -5 0 78 c0 81 14 178 56 390 13 66 28 179 34 250 5 72 15 193 21 270 18
222 6 804 -20 985 -25 170 -41 260 -69 390 -35 160 -35 169 -15 176 10 3 27
10 38 14 11 5 40 11 65 14 25 2 90 14 145 24 55 11 112 21 128 21 l27 1 -1
-97z m10578 -20 c-2 -16 -4 -3 -4 27 0 30 2 43 4 28 2 -16 2 -40 0 -55z m2273
-43 c0 -91 -3 -110 -15 -110 -12 0 -15 15 -15 73 0 39 3 89 6 110 12 72 24 36
24 -73z m-13462 -12 c7 -15 25 -73 40 -130 l27 -103 0 -385 c0 -348 -5 -455
-31 -700 -12 -102 -8 -739 4 -855 16 -152 17 -200 2 -236 l-12 -29 -189 0
-189 0 0 168 c0 173 9 222 57 330 8 18 18 70 23 115 26 247 32 309 40 377 4
41 6 190 4 330 -6 433 -13 502 -79 855 -28 151 -29 178 -8 196 10 8 50 25 88
36 39 12 97 30 130 41 72 23 77 23 93 -10z m10784 -69 l-9 -74 -2 85 c-1 59 2
81 10 73 7 -7 7 -34 1 -84z m2214 -21 c-4 -62 -11 -142 -15 -178 -7 -57 -8
-48 -9 66 -2 145 5 224 21 224 7 0 8 -38 3 -112z m-279 40 c-3 -7 -5 -2 -5 12
0 14 2 19 5 13 2 -7 2 -19 0 -25z m-2981 -352 c0 -345 -1 -371 -18 -388 -16
-16 -35 -18 -146 -18 -87 0 -134 4 -145 13 -16 11 -17 39 -14 342 3 280 6 335
20 360 9 17 18 38 21 48 5 16 19 17 143 15 l138 -3 1 -369z m-10236 354 c0 -5
-7 -10 -15 -10 -8 0 -15 5 -15 10 0 6 7 10 15 10 8 0 15 -4 15 -10z m-90 -19
c0 -8 -54 -26 -170 -54 -49 -12 -66 -13 -72 -4 -10 17 16 29 102 48 85 19 140
23 140 10z m110 -432 c0 -271 -3 -388 -11 -384 -17 11 -59 -4 -59 -21 0 -8 10
-34 22 -57 12 -23 26 -67 31 -97 5 -30 11 -245 13 -476 2 -232 7 -492 10 -577
8 -202 1 -261 -36 -299 -27 -27 -32 -28 -128 -28 l-99 0 -27 38 c-14 21 -26
43 -26 50 0 6 -13 51 -28 99 -16 48 -37 122 -46 163 -10 41 -21 84 -26 95 -11
26 -19 479 -10 525 6 27 8 19 9 -40 2 -86 10 -270 20 -415 l6 -100 33 -3 c21
-2 34 2 38 12 3 8 -4 62 -15 119 -22 108 -35 285 -50 662 -25 594 28 1040 126
1060 15 3 44 10 64 15 20 6 50 10 66 10 l29 0 12 -137 c7 -76 15 -167 18 -203
10 -117 7 -255 -5 -279 -18 -32 -7 -53 26 -49 l28 3 1 135 c2 129 -1 181 -26
423 -11 112 -5 147 25 147 13 0 15 -54 15 -391z m709 126 c12 -71 26 -157 33
-190 15 -83 25 -266 18 -350 -5 -66 -6 -68 -13 -30 -4 22 -14 96 -22 165 -30
263 -37 314 -52 354 -18 49 -29 208 -18 262 l8 39 13 -60 c7 -33 22 -118 33
-190z m-1276 198 c-4 -10 -9 -11 -19 -2 -11 9 -12 15 -3 26 14 17 31 -1 22
-24z m-93 -6 c0 -19 -8 -24 -53 -35 -29 -6 -67 -12 -84 -12 -17 0 -47 -7 -66
-15 -40 -16 -54 -7 -38 24 10 19 25 23 135 41 33 6 62 12 64 15 3 3 14 5 24 5
12 0 18 -7 18 -23z m11000 -311 c-7 -7 -10 34 -10 130 0 195 14 223 18 35 1
-96 -1 -158 -8 -165z m2857 107 c-2 -37 -3 -9 -3 62 0 72 1 102 3 68 2 -34 2
-93 0 -130z m-13749 42 c2 -87 -6 -130 -22 -114 -11 11 -23 185 -14 202 21 40
33 10 36 -88z m148 -100 c-9 -81 -16 -191 -17 -244 -1 -53 -4 -134 -8 -181 -8
-81 -8 -78 -11 70 -6 289 0 408 23 489 29 98 33 60 13 -134z m11990 194 c11
-19 17 -525 5 -514 -6 6 -12 61 -14 125 l-3 115 -2 -118 -2 -117 -27 -12 c-16
-6 -87 -13 -160 -16 l-132 -5 -7 27 c-3 14 -4 61 -1 104 3 42 6 137 6 211 0
123 2 135 21 148 11 8 20 23 20 33 0 10 8 21 18 23 38 10 271 7 278 -4z
m-12706 -19 c-8 -14 -21 -20 -47 -20 -20 0 -64 -5 -99 -11 -34 -6 -72 -9 -85
-7 -22 4 -22 5 6 12 17 4 38 11 47 17 10 5 38 10 62 11 25 0 51 5 58 9 7 5 26
9 41 9 25 0 27 -2 17 -20z m467 2 c24 -15 46 -368 35 -587 -1 -22 -2 -52 -3
-67 -5 -112 -2 -829 4 -893 4 -44 9 -105 11 -135 1 -30 10 -78 19 -105 9 -28
21 -81 27 -120 6 -38 15 -96 20 -127 8 -54 1 -105 -18 -135 -5 -8 -49 -13
-126 -15 -116 -3 -118 -3 -140 23 -21 24 -65 149 -112 314 -9 33 -20 65 -25
71 -17 22 -28 369 -30 954 -2 598 -1 606 21 680 12 41 28 81 35 89 8 8 65 24
127 37 128 25 139 27 155 16z m13667 -51 c-4 -14 -10 -73 -13 -131 l-6 -105
-8 128 c-4 70 -5 132 -2 137 3 5 13 6 21 3 11 -4 14 -13 8 -32z m-122 -31 c3
-30 6 -139 7 -242 l1 -188 -23 0 c-39 0 -47 52 -47 284 l0 207 28 -3 c25 -3
28 -7 34 -58z m-13998 -6 c11 -30 6 -179 -9 -254 -43 -209 -60 -444 -60 -845
0 -340 5 -468 21 -577 5 -36 3 -54 -10 -72 -23 -35 -20 -55 9 -66 20 -8 25
-16 25 -47 0 -20 7 -79 17 -130 9 -51 13 -96 10 -100 -4 -3 -43 -8 -87 -11
-78 -4 -80 -4 -107 25 -16 17 -36 54 -45 84 -10 30 -24 75 -32 101 -25 78 -57
216 -55 235 1 10 -1 26 -6 36 -7 17 -2 101 11 164 5 26 2 32 -15 38 -26 8 -27
26 -2 56 17 21 17 27 5 50 -24 47 -33 262 -34 775 0 391 3 504 12 512 7 5 69
15 138 22 69 6 127 14 129 16 2 2 21 4 42 4 24 0 39 -5 43 -16z m-488 -212
c-4 -102 -11 -219 -16 -261 -4 -42 -9 -316 -9 -610 -1 -339 -5 -538 -11 -546
-5 -6 -7 -15 -3 -19 11 -10 13 -41 16 -174 2 -79 7 -126 15 -130 13 -9 29
-142 16 -143 -149 -8 -324 -7 -330 3 -4 6 -9 52 -11 101 -5 105 14 202 56 292
20 41 31 85 36 140 4 44 11 114 17 155 5 41 11 219 13 395 5 392 -6 485 -96
834 -23 87 -27 116 -17 122 26 16 296 42 322 30 5 -2 6 -82 2 -189z m1750 143
c18 -65 41 -214 55 -370 12 -129 6 -570 -9 -700 -6 -49 -13 -119 -16 -155 -6
-75 -18 -136 -39 -199 l-14 -45 -6 45 c-4 24 -10 225 -14 446 -6 375 -5 407
12 464 18 58 18 62 2 74 -22 16 -22 43 0 67 14 16 15 25 5 69 -17 72 -13 359
4 359 2 0 11 -25 20 -55z m958 -1255 c5 -178 0 -237 -19 -218 -4 4 -9 35 -11
70 -3 35 -13 101 -22 148 -14 70 -16 153 -17 480 0 391 11 604 37 717 11 48
14 -13 19 -473 4 -291 9 -617 13 -724z m12524 1095 c3 -136 2 -155 -12 -155
-14 0 -16 19 -16 143 0 98 4 147 12 155 7 7 12 12 13 12 0 0 2 -70 3 -155z
m-15810 8 l4 -123 -36 0 c-31 0 -36 -3 -36 -24 0 -13 9 -44 20 -68 49 -111 51
-144 53 -921 1 -401 -1 -733 -4 -739 -4 -6 -10 -1 -14 11 -5 15 -13 21 -28 19
-18 -2 -21 -9 -19 -31 3 -25 0 -28 -20 -25 -15 2 -24 11 -26 26 -4 28 -30 26
-46 -3 -6 -11 -12 -22 -14 -24 -1 -2 -14 2 -28 9 -20 11 -29 12 -44 2 -28 -17
-58 -15 -69 6 -13 26 -35 331 -27 385 4 25 12 49 18 53 7 4 6 9 -2 14 -32 20
-35 1058 -4 1334 8 72 21 140 29 152 8 12 28 24 47 27 86 14 191 37 196 42 4
3 15 5 27 3 19 -3 20 -11 23 -125z m12511 -38 c-5 -13 -8 3 -7 45 0 63 1 63 8
20 4 -25 4 -54 -1 -65z m3021 -100 c0 -142 -2 -164 -15 -159 -11 5 -15 24 -15
79 0 41 5 77 10 80 6 3 10 42 10 86 0 43 2 79 5 79 3 0 5 -74 5 -165z m-15373
68 c-2 -16 -4 -5 -4 22 0 28 2 40 4 28 2 -13 2 -35 0 -50z m14428 59 c21 -7
26 -30 29 -127 l1 -50 -95 0 -95 0 -3 35 c-2 19 -1 58 3 87 5 43 10 53 28 56
34 7 110 6 132 -1z m-1291 -18 c13 -5 16 -23 16 -95 l0 -88 -169 2 c-93 1
-172 5 -176 9 -11 11 15 147 32 163 11 12 44 15 148 15 73 0 140 -3 149 -6z
m-10434 -250 c6 -75 12 -140 15 -143 6 -10 13 -119 20 -296 10 -233 -22 -573
-49 -528 -11 18 -25 975 -17 1118 4 67 4 68 12 28 4 -23 13 -104 19 -179z
m-2683 -81 c-1 -43 -3 -8 -3 77 0 85 2 120 3 78 2 -43 2 -113 0 -155z m73 52
c6 -37 14 -75 19 -84 18 -38 21 -522 3 -666 -6 -49 -15 -124 -19 -165 -7 -72
-8 -69 -14 80 -14 336 -20 935 -10 919 6 -8 15 -46 21 -84z m15560 0 c0 -24
-5 -35 -15 -35 -10 0 -15 11 -15 35 0 24 5 35 15 35 10 0 15 -11 15 -35z m166
-20 c1 -38 -2 -55 -11 -55 -20 0 -32 22 -37 68 -3 39 -2 42 22 42 24 0 25 -3
26 -55z m-5154 -60 c3 -13 3 -27 0 -29 -10 -10 -307 7 -314 18 -22 33 -9 36
151 36 l159 0 4 -25z m618 -41 c0 -41 -4 -63 -10 -59 -5 3 -10 33 -10 66 0 33
4 59 10 59 6 0 10 -29 10 -66z m-9703 -36 c-2 -13 -4 -3 -4 22 0 25 2 35 4 23
2 -13 2 -33 0 -45z m-1560 -460 c-1 -84 -3 -16 -3 152 0 168 2 236 3 153 2
-84 2 -222 0 -305z m10647 446 c9 -3 16 -13 16 -21 0 -13 -10 -14 -72 -7 -40
5 -117 8 -170 6 -99 -3 -116 1 -75 18 25 10 277 13 301 4z m-9087 -146 c-2
-13 -4 -3 -4 22 0 25 2 35 4 23 2 -13 2 -33 0 -45z m9093 -253 c-6 -233 -6
-298 3 -416 8 -93 7 -107 -7 -112 -9 -4 -63 -9 -120 -13 -127 -8 -166 3 -166
46 0 15 -7 33 -15 40 -9 8 -15 30 -15 59 0 26 -4 51 -9 57 -5 5 -11 29 -14 54
-3 25 -11 65 -18 90 -14 54 -15 193 0 318 1 9 33 12 125 12 99 0 126 3 136 15
9 11 27 15 59 13 l46 -3 -5 -160z m-9253 8 c-3 -10 -5 -4 -5 12 0 17 2 24 5
18 2 -7 2 -21 0 -30z m42 -237 c25 -208 27 -280 9 -274 -7 3 -16 28 -19 57 -4
28 -12 64 -18 79 -5 15 -12 98 -14 184 -3 127 -2 154 9 144 8 -8 21 -85 33
-190z m1098 12 c-3 -8 -6 -5 -6 6 -1 11 2 17 5 13 3 -3 4 -12 1 -19z m-2540
-250 c-1 -40 -3 -10 -3 67 0 77 1 110 3 73 2 -37 2 -100 0 -140z m10930 -15
c15 -12 12 -43 -4 -43 -27 1 -33 18 -26 76 7 55 8 56 11 19 2 -22 10 -45 19
-52z m-8369 -85 l-1 -93 -7 80 c-6 73 -4 105 6 105 2 0 3 -42 2 -92z m-2123
-24 c3 -32 1 -81 -4 -109 -7 -43 -9 -35 -10 64 -1 121 6 144 14 45z m1025 51
c0 -8 -4 -15 -10 -15 -5 0 -10 7 -10 15 0 8 5 15 10 15 6 0 10 -7 10 -15z
m-553 -17 c-3 -8 -6 -5 -6 6 -1 11 2 17 5 13 3 -3 4 -12 1 -19z m-1548 -85 c0
-25 -1 -25 -8 -8 -5 11 -7 23 -4 28 8 14 13 7 12 -20z m-63 -39 c1 -17 8 -41
17 -55 16 -26 37 -141 37 -208 0 -71 -17 -79 -167 -80 -70 -1 -135 3 -143 9
-21 13 -28 213 -9 236 16 19 240 134 254 130 6 -1 10 -16 11 -32z m2335 -264
c2 -47 0 -51 -28 -48 l-28 3 -2 125 -2 125 29 -90 c16 -49 30 -101 31 -115z
m-578 88 c44 -146 43 -157 -9 -144 -24 6 -24 8 -24 116 0 61 2 110 4 110 2 0
15 -37 29 -82z m-2173 -58 c0 -22 -7 -56 -15 -76 l-14 -34 -121 2 c-66 2 -114
5 -107 7 6 2 26 15 43 28 33 24 193 112 207 113 4 0 7 -18 7 -40z m917 -106
c-3 -3 -12 -4 -19 -1 -8 3 -5 6 6 6 11 1 17 -2 13 -5z"/>
<path d="M3827 3605 c-23 -17 -18 -49 8 -52 22 -3 60 41 50 57 -9 14 -37 12
-58 -5z"/>
<path d="M3735 3563 c-16 -16 -16 -17 0 -30 22 -15 35 -9 35 17 0 27 -16 33
-35 13z"/>
<path d="M3653 3521 c9 -24 13 -27 28 -18 17 10 17 13 2 29 -26 29 -43 23 -30
-11z"/>
<path d="M3302 3441 c-19 -11 -11 -45 11 -49 13 -3 17 3 17 27 0 32 -6 37 -28
22z"/>
<path d="M3207 3413 c-4 -3 -7 -15 -7 -25 0 -13 7 -18 26 -18 20 0 25 4 20 16
-3 9 -6 20 -6 25 0 10 -23 12 -33 2z"/>
<path d="M2850 3306 c0 -8 3 -22 6 -31 6 -14 8 -14 25 1 27 24 24 44 -6 44
-15 0 -25 -6 -25 -14z"/>
<path d="M2770 3285 c-15 -18 -6 -45 14 -45 16 0 31 34 21 50 -9 14 -21 12
-35 -5z"/>
<path d="M2682 3268 c-7 -7 -12 -23 -12 -36 0 -38 34 -24 38 16 3 33 -6 40
-26 20z"/>
<path d="M12128 8003 c6 -2 18 -2 25 0 6 3 1 5 -13 5 -14 0 -19 -2 -12 -5z"/>
<path d="M12368 7933 c7 -3 16 -2 19 1 4 3 -2 6 -13 5 -11 0 -14 -3 -6 -6z"/>
<path d="M3800 6895 c0 -8 7 -15 15 -15 8 0 15 7 15 15 0 8 -7 15 -15 15 -8 0
-15 -7 -15 -15z"/>
<path d="M14437 6896 c-5 -13 0 -16 26 -15 21 1 25 3 12 6 -11 3 -23 10 -26
15 -3 5 -9 3 -12 -6z"/>
<path d="M14530 6860 c0 -6 7 -10 15 -10 8 0 15 2 15 4 0 2 -7 6 -15 10 -8 3
-15 1 -15 -4z"/>
<path d="M14608 6833 c7 -3 16 -2 19 1 4 3 -2 6 -13 5 -11 0 -14 -3 -6 -6z"/>
<path d="M3800 6805 c0 -8 7 -15 15 -15 8 0 15 7 15 15 0 8 -7 15 -15 15 -8 0
-15 -7 -15 -15z"/>
<path d="M14683 6813 c9 -2 23 -2 30 0 6 3 -1 5 -18 5 -16 0 -22 -2 -12 -5z"/>
<path d="M14828 6763 c7 -3 16 -2 19 1 4 3 -2 6 -13 5 -11 0 -14 -3 -6 -6z"/>
<path d="M14898 6743 c6 -2 18 -2 25 0 6 3 1 5 -13 5 -14 0 -19 -2 -12 -5z"/>
<path d="M3800 6710 c0 -5 7 -10 15 -10 8 0 15 5 15 10 0 6 -7 10 -15 10 -8 0
-15 -4 -15 -10z"/>
<path d="M15030 6700 c0 -5 9 -10 20 -10 11 0 28 -4 38 -9 46 -23 74 -31 160
-46 107 -18 112 -18 112 -6 0 9 -34 18 -105 28 -22 3 -44 9 -49 14 -6 5 -33 9
-62 9 -37 0 -54 4 -58 15 -6 17 -56 21 -56 5z"/>
<path d="M3800 6620 c0 -5 7 -10 15 -10 8 0 15 5 15 10 0 6 -7 10 -15 10 -8 0
-15 -4 -15 -10z"/>
<path d="M3800 6525 c0 -8 7 -15 15 -15 8 0 15 7 15 15 0 8 -7 15 -15 15 -8 0
-15 -7 -15 -15z"/>
<path d="M3800 6435 c0 -8 7 -15 15 -15 8 0 15 7 15 15 0 8 -7 15 -15 15 -8 0
-15 -7 -15 -15z"/>
<path d="M3821 6344 c0 -11 3 -14 6 -6 3 7 2 16 -1 19 -3 4 -6 -2 -5 -13z"/>
<path d="M3821 6254 c0 -11 3 -14 6 -6 3 7 2 16 -1 19 -3 4 -6 -2 -5 -13z"/>
<path d="M3821 6164 c0 -11 3 -14 6 -6 3 7 2 16 -1 19 -3 4 -6 -2 -5 -13z"/>
<path d="M3820 5975 c0 -8 7 -15 15 -15 8 0 15 7 15 15 0 8 -7 15 -15 15 -8 0
-15 -7 -15 -15z"/>
<path d="M2428 5893 c6 -2 18 -2 25 0 6 3 1 5 -13 5 -14 0 -19 -2 -12 -5z"/>
<path d="M3820 5885 c0 -8 7 -15 15 -15 8 0 15 7 15 15 0 8 -7 15 -15 15 -8 0
-15 -7 -15 -15z"/>
<path d="M3545 5751 l-30 -16 33 -3 c39 -4 47 1 35 20 -7 12 -13 12 -38 -1z"/>
<path d="M14893 3994 l-23 -5 0 -255 0 -254 50 0 50 0 0 70 0 70 35 0 c68 0
141 44 171 102 8 15 14 55 14 89 0 121 -62 178 -198 184 -42 2 -87 1 -99 -1z
m140 -95 c30 -8 42 -18 54 -46 29 -70 -7 -138 -81 -150 l-36 -6 0 100 c0 92 4
113 19 113 3 0 23 -5 44 -11z"/>
<path d="M15408 3993 c-17 -4 -18 -25 -18 -259 l0 -254 50 0 50 0 0 101 0 100
30 -3 c29 -3 34 -11 73 -98 l43 -95 57 -3 c31 -2 57 -2 57 0 0 2 -23 49 -50
106 -28 57 -50 107 -50 111 0 4 12 17 26 30 96 84 54 232 -74 260 -52 11 -160
13 -194 4z m202 -108 c12 -11 20 -31 20 -51 0 -45 -38 -74 -96 -74 l-44 0 0
76 0 77 50 -5 c28 -3 59 -13 70 -23z"/>
<path d="M16111 3989 c-84 -25 -158 -102 -182 -194 -44 -163 78 -325 245 -325
194 0 325 209 242 385 -51 112 -182 169 -305 134z m159 -115 c45 -38 60 -75
60 -146 0 -105 -49 -158 -147 -158 -92 0 -153 63 -153 158 0 66 18 110 59 145
27 23 42 27 91 27 48 0 64 -4 90 -26z"/>
<path d="M18563 3994 l-23 -5 0 -255 0 -254 50 0 49 0 3 98 3 97 31 3 c30 3
32 1 75 -97 l43 -101 58 0 57 0 -53 111 -53 111 34 32 c76 69 58 198 -33 241
-38 18 -191 30 -241 19z m210 -115 c24 -30 21 -66 -8 -94 -19 -20 -34 -25 -75
-25 l-50 0 0 68 c0 38 3 72 8 76 15 16 106 -3 125 -25z"/>
<path d="M16760 3800 c0 -189 0 -191 -25 -215 -37 -37 -88 -30 -127 19 -17 20
-18 20 -18 -36 0 -52 3 -59 27 -75 39 -26 133 -24 169 3 67 50 69 55 72 285
l3 209 -50 0 -51 0 0 -190z"/>
<path d="M17090 3735 l0 -255 145 0 145 0 0 45 0 45 -95 0 -95 0 0 70 0 70 76
0 c74 0 76 1 70 23 -3 12 -6 32 -6 45 0 21 -4 22 -70 22 l-70 0 0 51 0 51 90
-4 90 -3 0 48 0 47 -140 0 -140 0 0 -255z"/>
<path d="M17600 3735 l0 -255 120 0 120 0 0 45 0 45 -70 0 -70 0 0 210 0 210
-50 0 -50 0 0 -255z"/>
<path d="M18040 3735 l0 -255 145 0 145 0 0 45 0 45 -95 0 -95 0 0 70 0 70 70
0 70 0 0 45 0 45 -70 0 -70 0 0 51 0 50 88 -2 87 -2 3 46 3 47 -140 0 -141 0
0 -255z"/>
<path d="M11290 3094 c-24 -13 -24 -14 20 -13 25 0 68 6 95 14 l50 14 -70 -1
c-40 0 -81 -6 -95 -14z"/>
<path d="M11543 3103 c15 -2 39 -2 55 0 15 2 2 4 -28 4 -30 0 -43 -2 -27 -4z"/>
<path d="M9215 3090 c-16 -4 179 -8 434 -9 255 0 462 1 460 3 -8 7 -865 13
-894 6z"/>
<path d="M10133 3083 c9 -2 23 -2 30 0 6 3 -1 5 -18 5 -16 0 -22 -2 -12 -5z"/>
<path d="M10208 3083 c6 -2 18 -2 25 0 6 3 1 5 -13 5 -14 0 -19 -2 -12 -5z"/>
<path d="M10488 3083 c7 -3 16 -2 19 1 4 3 -2 6 -13 5 -11 0 -14 -3 -6 -6z"/>
<path d="M10693 3083 c87 -2 227 -2 310 0 84 1 13 3 -158 3 -170 0 -239 -2
-152 -3z"/>
<path d="M11208 3083 c12 -2 30 -2 40 0 9 3 -1 5 -23 4 -22 0 -30 -2 -17 -4z"/>
<path d="M5808 3035 c-3 -14 -1 -25 3 -25 5 0 9 11 9 25 0 14 -2 25 -4 25 -2
0 -6 -11 -8 -25z"/>
<path d="M1822 3005 c-11 -12 -10 -15 3 -15 8 0 15 7 15 15 0 18 -2 18 -18 0z"/>
<path d="M1730 2975 c-7 -9 -11 -18 -8 -20 3 -3 11 1 18 10 7 9 11 18 8 20 -3
3 -11 -1 -18 -10z"/>
<path d="M1630 2939 c0 -5 5 -7 10 -4 6 3 10 8 10 11 0 2 -4 4 -10 4 -5 0 -10
-5 -10 -11z"/>
<path d="M1540 2915 c0 -8 5 -15 10 -15 6 0 10 7 10 15 0 8 -4 15 -10 15 -5 0
-10 -7 -10 -15z"/>
<path d="M1366 2865 c4 -8 13 -15 21 -15 12 0 12 2 -1 15 -8 8 -17 15 -20 15
-3 0 -3 -7 0 -15z"/>
<path d="M1273 2853 c9 -2 23 -2 30 0 6 3 -1 5 -18 5 -16 0 -22 -2 -12 -5z"/>
</g>
</svg>
